<svg id="Layer_1" data-name="Layer 1" xmlns="http://www.w3.org/2000/svg" xmlns:xlink="http://www.w3.org/1999/xlink" viewBox="0 0 66.94 98.31"><defs><style>.cls-1,.cls-4,.cls-5,.cls-7{fill:none;}.cls-2{clip-path:url(#clip-path);}.cls-3{fill:#ececec;}.cls-4,.cls-5{stroke:#000;}.cls-4,.cls-7{stroke-linecap:round;stroke-linejoin:round;}.cls-4,.cls-5,.cls-7{stroke-width:0.5px;}.cls-5{stroke-miterlimit:10;}.cls-6{fill:#fff;}.cls-7{stroke:#a5a5a5;}</style><clipPath id="clip-path"><rect class="cls-1" x="4.17" y="1.64" width="59" height="106"/></clipPath></defs><title>Artboard 1</title><g class="cls-2"><path class="cls-3" d="M54.11,26.2a29.25,29.25,0,1,1-41.37,0,29.26,29.26,0,0,1,41.37,0"/><line class="cls-4" x1="32.67" y1="2.64" x2="32.67" y2="88.44"/><polygon points="32.67 94.44 34.92 88.44 30.42 88.44 32.67 94.44"/><polygon class="cls-5" points="32.67 94.44 34.92 88.44 30.42 88.44 32.67 94.44"/><path class="cls-6" d="M48,32.3a20.63,20.63,0,1,1-29.17,0A20.64,20.64,0,0,1,48,32.3"/><path class="cls-7" d="M48,32.3a20.63,20.63,0,1,1-29.17,0A20.64,20.64,0,0,1,48,32.3"/><path d="M34,49.11H30l-.71,1.78h-1.1l3.21-8H32.6l3.23,8H34.72Zm-3.76-.89h3.46L32,43.77Z"/><path d="M36.87,42.89h1v8h-1Z"/></g></svg>