<?xml version="1.0" encoding="utf-8"?>
<!-- Generated by IcoMoon.io -->
<!DOCTYPE svg PUBLIC "-//W3C//DTD SVG 1.1//EN" "http://www.w3.org/Graphics/SVG/1.1/DTD/svg11.dtd">
<svg version="1.1" xmlns="http://www.w3.org/2000/svg" xmlns:xlink="http://www.w3.org/1999/xlink" width="1024" height="1024" viewBox="0 0 1024 1024"><g id="icomoon-ignore">
</g>
<path d="M512 1024c282.304 0 512-229.696 512-512s-229.696-512-512-512-512 229.696-512 512 229.696 512 512 512zM246.72 112.32c-28.064 75.648-42.016 153.888-39.872 233.184 1.6 57.536 11.424 115.168 29.344 171.36 13.92 43.52 32.096 84.96 54.112 123.136 3.52 6.144 7.2 12.192 10.912 18.176 3.040 4.864 8.256 7.552 13.6 7.552 2.912 0 5.824-0.768 8.448-2.4 7.488-4.672 9.824-14.528 5.152-22.016-3.52-5.696-7.008-11.456-10.4-17.312-20.832-36.192-38.112-75.488-51.328-116.832-16.992-53.344-26.336-108.032-27.84-162.528-2.272-83.456 13.312-165.856 47.136-246.848 1.568-3.84 3.232-7.616 4.896-11.392 66.24-34.56 141.344-54.4 221.12-54.4 76.576 0 148.736 18.464 213.024 50.496-79.36 13.536-153.888 40.544-221.408 82.016-48.992 30.048-94.016 67.424-133.728 111.072-30.784 33.76-57.568 70.272-79.584 108.416-3.552 6.144-7.008 12.352-10.304 18.592-4.16 7.808-1.184 17.504 6.624 21.632 2.368 1.28 4.96 1.888 7.488 1.888 5.728 0 11.264-3.104 14.112-8.512 3.136-5.888 6.368-11.744 9.76-17.6 20.864-36.192 46.304-70.784 75.52-102.88 37.728-41.408 80.416-76.832 126.848-105.376 71.2-43.68 150.336-71.392 235.328-82.304 4.672-0.64 9.376-1.152 14.080-1.696 125.344 80.224 210.816 216.832 220.704 373.952-51.392-61.92-112.032-112.96-181.696-150.688-50.624-27.424-105.504-47.712-163.104-60.288-51.84-11.36-104.064-16.192-154.976-14.336-8.8 0.352-15.712 7.744-15.392 16.608 0.32 8.64 7.392 15.392 16 15.392 0.192 0 0.384 0 0.608 0 47.872-1.792 97.728 2.816 146.976 13.6 54.624 11.936 106.688 31.2 154.656 57.152 73.44 39.808 136.992 94.496 190.656 164.832 2.304 2.976 4.512 6.016 6.752 9.024-6.88 157.888-89.856 296.256-213.664 378.688 28.064-75.648 42.016-153.888 39.872-233.184-1.6-57.536-11.424-115.168-29.344-171.36-13.92-43.52-32.096-84.96-54.112-123.136-3.52-6.144-7.2-12.192-10.912-18.176-4.672-7.52-14.56-9.76-22.016-5.152-7.488 4.672-9.824 14.528-5.152 22.016 3.52 5.696 7.008 11.456 10.4 17.312 20.832 36.192 38.112 75.488 51.328 116.832 16.992 53.344 26.336 108.032 27.84 162.528 2.272 83.424-13.312 165.856-47.136 246.848-1.6 3.808-3.232 7.616-4.896 11.392-66.272 34.56-141.376 54.4-221.152 54.4-76.576 0-148.736-18.464-213.024-50.496 79.328-13.536 153.888-40.544 221.408-82.016 49.056-30.112 94.048-67.488 133.728-111.072 30.816-33.792 57.6-70.272 79.584-108.448 3.552-6.144 7.008-12.352 10.304-18.592 4.16-7.808 1.184-17.504-6.624-21.632-7.744-4.16-17.504-1.152-21.632 6.624-3.136 5.888-6.368 11.744-9.76 17.6-20.864 36.192-46.304 70.784-75.552 102.88-37.632 41.376-80.32 76.8-126.816 105.376-71.2 43.68-150.336 71.392-235.328 82.304-4.672 0.64-9.376 1.152-14.080 1.696-125.344-80.224-210.816-216.832-220.704-373.952 51.392 61.92 112.032 112.96 181.696 150.688 50.624 27.424 105.504 47.712 163.104 60.288 44.64 9.824 89.6 14.752 133.696 14.752 7.136 0 14.176-0.128 21.28-0.384 8.8-0.352 15.712-7.744 15.392-16.608-0.32-8.8-6.56-16.16-16.608-15.392-47.808 1.824-97.728-2.816-146.976-13.6-54.624-11.936-106.688-31.2-154.656-57.152-73.44-39.808-136.992-94.496-190.656-164.832-2.304-2.976-4.512-6.016-6.752-9.024 6.912-157.888 89.92-296.256 213.696-378.688z"></path>
</svg>
