<svg id="Layer_1" data-name="Layer 1" xmlns="http://www.w3.org/2000/svg" viewBox="0 0 251.5 62.17"><title>Artboard 1</title><rect x="44.29" y="3.67" width="18.21" height="6.72" rx="3" ry="3"/><rect x="2" y="3.67" width="37.53" height="6.72" rx="3" ry="3"/><rect x="27.21" y="40.08" width="35.29" height="6.72" rx="3" ry="3"/><rect x="44.29" y="27.94" width="18.21" height="6.72" rx="3" ry="3"/><rect x="12.64" y="27.94" width="26.89" height="6.72" rx="3" ry="3"/><rect x="33.93" y="15.8" width="28.57" height="6.72" rx="3" ry="3"/><rect x="2" y="15.99" width="27.45" height="6.72" rx="3" ry="3"/><polygon points="113.01 21.1 89.76 21.1 89.76 2.81 81.92 2.81 81.92 47.5 89.76 47.5 89.76 28 113.01 28 113.01 47.5 120.85 47.5 120.85 2.81 113.01 2.81 113.01 21.1"/><path d="M140.75,39.39,131.3,15.14h-7.5L137.06,47.9l-1.6,3.69c-.94,2.14-2.42,2.81-4.63,2.81a7.48,7.48,0,0,1-2.68-.53l-1.07,6.29a19.81,19.81,0,0,0,4,.47c5-.06,8.92-1.81,11.13-7.3l15.61-38.19H150.2Z"/><path d="M177.93,14.33a12.89,12.89,0,0,0-10.38,5.23V15.14h-7V59.83h7V43a12.68,12.68,0,0,0,10.38,5.29c8.38,0,14.34-6.36,14.34-17S186.31,14.33,177.93,14.33Zm-2.07,27.74a10.69,10.69,0,0,1-8.31-4.35V24.92a10.49,10.49,0,0,1,8.31-4.35c5.56,0,9.11,4.48,9.11,10.72S181.42,42.07,175.86,42.07Z"/><path d="M212.1,14.33c-9.58,0-16.41,7.58-16.41,17,0,10.25,7.23,17,16.95,17,5.16,0,9.92-1.6,13.13-4.69L222.56,39a13.69,13.69,0,0,1-9.18,3.55c-6.1,0-9.79-4-10.32-8.91h25V32C228.05,21.77,221.82,14.33,212.1,14.33ZM203,28.67c.34-4,3.08-8.57,9.11-8.57a8.64,8.64,0,0,1,9.11,8.57Z"/><path d="M239.37,19.9V15.14h-7V47.5h7v-22c1.41-2.28,5.36-4.29,8.31-4.29a10.62,10.62,0,0,1,2.21.2v-7A13.8,13.8,0,0,0,239.37,19.9Z"/></svg>