<svg id="Layer_1" data-name="Layer 1" xmlns="http://www.w3.org/2000/svg" xmlns:xlink="http://www.w3.org/1999/xlink" viewBox="0 0 181.76 173.02"><defs><style>.cls-1,.cls-3,.cls-4,.cls-5,.cls-6,.cls-9{fill:none;}.cls-2{clip-path:url(#clip-path);}.cls-3,.cls-5{stroke:#666;}.cls-3,.cls-4,.cls-5,.cls-6,.cls-9{stroke-linecap:round;stroke-linejoin:round;stroke-width:0.5px;}.cls-4{stroke:#cdcdcd;}.cls-5,.cls-6{stroke-dasharray:1 4;}.cls-6{stroke:#000;}.cls-7{fill:#f4f4f4;}.cls-8{fill:#fff;}.cls-9{stroke:#a5a5a5;}</style><clipPath id="clip-path"><rect class="cls-1" x="-149.01" y="-83.49" width="411" height="423"/></clipPath></defs><title>Artboard 1</title><g class="cls-2"><path class="cls-3" d="M31.38-16.59c37.51,2.71,52.23,47.1,57.4,72.27"/><path class="cls-4" d="M261.49-45.49C158.55-68.53,115.33,2.83,99.38,44.66"/><path class="cls-5" d="M220.49-78.49C157.28-105.94,99.43,10,90.38,55.53"/><path class="cls-3" d="M-34.75,273.58C66,261.39,86.55,136.4,90.43,90"/><path class="cls-5" d="M-10.17,219.65c52.93-23,84.63-97.12,96.29-130.42"/><path class="cls-5" d="M217.49,188.51C140,192.29,128.59,178.2,97,89"/><path class="cls-3" d="M167.55,203.8C116.27,181.5,98.78,120,93.39,89.87"/><path class="cls-5" d="M-72.26-5.49C41-17.92,76.31,29.56,86.92,56.05"/><path class="cls-4" d="M34.49-54.49c39.24.68,51.58,60.68,55.31,98"/><path class="cls-3" d="M145.31,220.52C99.83,227.75,92.13,147.11,91.15,102"/><path class="cls-4" d="M62,273.51C97.86,250.93,95.23,134.35,92.6,90"/><path class="cls-4" d="M202.49,224.51c-87.75,30.06-106-88.85-110-134.55"/><path class="cls-4" d="M166.89,308.79C79,272.62,84.59,137.91,89.28,89.89"/><path class="cls-6" d="M234.49,332.51C115.61,303.41,95.73,143.24,92.12,90"/><path class="cls-3" d="M152.49,337.51C86.18,354.51,88.71,151.34,90.65,90"/><path class="cls-4" d="M-148.51,261.51C26.37,316.16,77,145.54,88.41,89.77"/><path class="cls-7" d="M111.92,52.07a29.25,29.25,0,1,1-41.36,0,29.26,29.26,0,0,1,41.36,0"/><path class="cls-8" d="M103.44,60.56a17.25,17.25,0,1,1-24.4,0,17.26,17.26,0,0,1,24.4,0"/><path class="cls-9" d="M103.44,60.56a17.25,17.25,0,1,1-24.4,0,17.26,17.26,0,0,1,24.4,0"/><path d="M91.73,75.28H88.35l-.59,1.48h-.92l2.68-6.67h1l2.69,6.67h-.92Zm-3.14-.74h2.89L90,70.83Z"/><path d="M94.11,70.09h.83v6.67h-.83Z"/></g></svg>