<svg id="Layer_1" data-name="Layer 1" xmlns="http://www.w3.org/2000/svg" xmlns:xlink="http://www.w3.org/1999/xlink" viewBox="0 0 50.87 107.03"><defs><style>.cls-1,.cls-4,.cls-5,.cls-7{fill:none;}.cls-2{clip-path:url(#clip-path);}.cls-3{fill:#ececec;}.cls-4,.cls-5{stroke:#000;}.cls-4,.cls-7{stroke-linecap:round;stroke-linejoin:round;}.cls-4,.cls-5,.cls-7{stroke-width:0.5px;}.cls-5{stroke-miterlimit:10;}.cls-6{fill:#fff;}.cls-7{stroke:#a5a5a5;}</style><clipPath id="clip-path"><rect class="cls-1" x="3" y="6.85" width="44" height="108"/></clipPath></defs><title>Artboard 1</title><g class="cls-2"><path class="cls-3" d="M40.63,32.72a21.75,21.75,0,1,1-30.76,0,21.76,21.76,0,0,1,30.76,0"/><line class="cls-4" x1="25.5" y1="7.35" x2="25.5" y2="95.15"/><polygon points="25.5 101.15 27.75 95.15 23.25 95.15 25.5 101.15"/><polygon class="cls-5" points="25.5 101.15 27.75 95.15 23.25 95.15 25.5 101.15"/><path class="cls-6" d="M35,38.38a13.75,13.75,0,1,1-19.44,0,13.74,13.74,0,0,1,19.44,0"/><path class="cls-7" d="M35,38.38a13.75,13.75,0,1,1-19.44,0,13.74,13.74,0,0,1,19.44,0"/><path d="M25.7,50.27H22.65l-.53,1.33h-.83l2.42-6h.92l2.43,6h-.83Zm-2.83-.67h2.6l-1.29-3.34Z"/><path d="M27.84,45.59h.74v6h-.74Z"/></g></svg>