<svg id="Layer_1" data-name="Layer 1" xmlns="http://www.w3.org/2000/svg" xmlns:xlink="http://www.w3.org/1999/xlink" viewBox="0 0 188.5 248.87"><defs><style>.cls-1,.cls-12,.cls-15,.cls-3,.cls-6{fill:none;}.cls-2{fill:#f2f2f2;}.cls-3,.cls-4,.cls-6{stroke:#b3b3b3;}.cls-12,.cls-3,.cls-4,.cls-6,.cls-7,.cls-9{stroke-miterlimit:10;}.cls-3,.cls-4,.cls-6,.cls-7{stroke-width:0.5px;}.cls-3{stroke-dasharray:1 2;}.cls-14,.cls-4,.cls-7,.cls-9{fill:#fff;}.cls-5{font-size:8px;}.cls-10,.cls-5{font-family:ProximaNova-Regular, Proxima Nova;}.cls-6{stroke-dasharray:1 1;}.cls-7{stroke:#666;}.cls-8{letter-spacing:-0.02em;}.cls-12,.cls-15,.cls-9{stroke:#000;stroke-width:0.25px;}.cls-10{font-size:3.78px;}.cls-11{opacity:0.97;}.cls-13{clip-path:url(#clip-path);}.cls-15{stroke-linecap:round;stroke-linejoin:round;}.cls-16{fill:#e2e2e2;}.cls-17{fill:#dadada;}</style><clipPath id="clip-path"><rect class="cls-1" x="61.19" y="141.98" width="66.15" height="48.87"/></clipPath></defs><title>Artboard 1</title><rect class="cls-2" x="8.21" y="14.25" width="172.12" height="202.5"/><line class="cls-3" x1="94.29" y1="9.25" x2="94.29" y2="239.25"/><rect class="cls-4" x="26.21" y="207.75" width="136.12" height="18"/><text class="cls-5" transform="translate(58.38 219)">Channel Connectors</text><rect class="cls-4" x="26.21" y="5.25" width="136.12" height="18"/><text class="cls-5" transform="translate(78.8 16.5)">Hyper UI</text><line class="cls-3" x1="22.31" y1="239.25" x2="166.31" y2="239.25"/><line class="cls-6" x1="24.52" y1="243.26" x2="26.81" y2="240.26"/><line class="cls-6" x1="30.95" y1="243.26" x2="33.24" y2="240.26"/><line class="cls-6" x1="37.38" y1="243.26" x2="39.67" y2="240.26"/><line class="cls-6" x1="43.81" y1="243.26" x2="46.1" y2="240.26"/><line class="cls-6" x1="50.23" y1="243.26" x2="52.53" y2="240.26"/><line class="cls-6" x1="56.66" y1="243.26" x2="58.96" y2="240.26"/><line class="cls-6" x1="101.66" y1="243.26" x2="103.96" y2="240.26"/><line class="cls-6" x1="69.52" y1="243.26" x2="71.81" y2="240.26"/><line class="cls-6" x1="63.09" y1="243.26" x2="65.38" y2="240.26"/><line class="cls-6" x1="75.95" y1="243.26" x2="78.24" y2="240.26"/><line class="cls-6" x1="82.38" y1="243.26" x2="84.67" y2="240.26"/><line class="cls-6" x1="88.81" y1="243.26" x2="91.1" y2="240.26"/><line class="cls-6" x1="95.23" y1="243.26" x2="97.53" y2="240.26"/><line class="cls-6" x1="108.09" y1="243.26" x2="110.38" y2="240.26"/><line class="cls-6" x1="114.52" y1="243.26" x2="116.81" y2="240.26"/><line class="cls-6" x1="120.95" y1="243.26" x2="123.24" y2="240.26"/><line class="cls-6" x1="133.81" y1="243.26" x2="136.1" y2="240.26"/><line class="cls-6" x1="127.38" y1="243.26" x2="129.67" y2="240.26"/><line class="cls-6" x1="140.23" y1="243.26" x2="142.53" y2="240.26"/><line class="cls-6" x1="153.09" y1="243.26" x2="155.38" y2="240.26"/><line class="cls-6" x1="146.66" y1="243.26" x2="148.96" y2="240.26"/><line class="cls-6" x1="159.52" y1="243.26" x2="161.81" y2="240.26"/><rect class="cls-7" x="21.71" y="27.75" width="145.12" height="85.5"/><text class="cls-5" transform="translate(54.16 45.75)">Hyper <tspan class="cls-8" x="23.42" y="0">L</tspan><tspan x="27.33" y="0">earning Engine</tspan></text><rect class="cls-9" x="61.51" y="70.29" width="24.61" height="15.7"/><circle class="cls-9" cx="115.11" cy="78.14" r="11.92"/><text class="cls-10" transform="translate(68.82 79.1)">Agent</text><text class="cls-10" transform="translate(107.33 79.1)">Channels</text><g class="cls-11"><path class="cls-12" d="M73.39,68.68c6-8.5,15.65-12.52,23.84-10.21a18.73,18.73,0,0,1,9.1,6"/><polygon points="105.12 65.01 107.44 65.91 107.06 63.44 105.12 65.01"/></g><path class="cls-12" d="M107.54,91.32a19.84,19.84,0,0,1-33.18-1"/><polygon points="75.63 89.98 73.44 88.78 73.49 91.27 75.63 89.98"/><rect class="cls-7" x="21.71" y="117.75" width="145.12" height="85.5"/><text class="cls-5" transform="translate(65.81 135.75)">Hyper Ad Graph</text><g class="cls-13"><path class="cls-14" d="M97.67,148.35a3.59,3.59,0,1,1-5.07,0,3.59,3.59,0,0,1,5.07,0"/><path class="cls-15" d="M97.67,148.35a3.59,3.59,0,1,1-5.07,0,3.59,3.59,0,0,1,5.07,0"/><path class="cls-14" d="M81.62,162.28a3.58,3.58,0,1,1-5.06,0,3.57,3.57,0,0,1,5.06,0"/><path class="cls-15" d="M81.62,162.28a3.58,3.58,0,1,1-5.06,0,3.57,3.57,0,0,1,5.06,0"/><path class="cls-14" d="M100,162.88a2.74,2.74,0,1,1-3.87,0,2.73,2.73,0,0,1,3.87,0"/><path class="cls-15" d="M100,162.88a2.74,2.74,0,1,1-3.87,0,2.73,2.73,0,0,1,3.87,0"/><line class="cls-15" x1="92.43" y1="153.23" x2="81.8" y2="162.46"/><polyline class="cls-15" points="95.36 154.46 95.4 155.26 97.31 162.17"/><path class="cls-2" d="M66.36,171.3a2.74,2.74,0,1,1-3.87,0,2.73,2.73,0,0,1,3.87,0"/><path class="cls-15" d="M66.36,171.3a2.74,2.74,0,1,1-3.87,0,2.73,2.73,0,0,1,3.87,0"/><path class="cls-16" d="M91.78,175.36a2.74,2.74,0,1,1-3.87,0,2.75,2.75,0,0,1,3.87,0"/><path class="cls-15" d="M91.78,175.36a2.74,2.74,0,1,1-3.87,0,2.75,2.75,0,0,1,3.87,0"/><line class="cls-15" x1="75.98" y1="166.6" x2="66.8" y2="171.87"/><line class="cls-15" x1="81.43" y1="167.53" x2="88.06" y2="175.23"/><path class="cls-14" d="M76.26,183.15a4.37,4.37,0,1,1-6.17,0,4.36,4.36,0,0,1,6.17,0"/><path class="cls-15" d="M76.26,183.15a4.37,4.37,0,1,1-6.17,0,4.36,4.36,0,0,1,6.17,0"/><line class="cls-15" x1="78.14" y1="168.27" x2="74.34" y2="182.03"/><path class="cls-2" d="M113.72,172.81a1.85,1.85,0,1,1-2.62,0,1.84,1.84,0,0,1,2.62,0"/><path class="cls-15" d="M113.72,172.81a1.85,1.85,0,1,1-2.62,0,1.84,1.84,0,0,1,2.62,0"/><line class="cls-15" x1="100.33" y1="166.3" x2="110.86" y2="173.12"/><line class="cls-15" x1="95.5" y1="142.47" x2="95.5" y2="147.3"/><path class="cls-16" d="M118.07,162a2.74,2.74,0,1,1-3.87,0,2.73,2.73,0,0,1,3.87,0"/><path class="cls-15" d="M118.07,162a2.74,2.74,0,1,1-3.87,0,2.73,2.73,0,0,1,3.87,0"/><line class="cls-15" x1="98.18" y1="152.78" x2="113.81" y2="162.52"/><path class="cls-14" d="M106.07,182.41a1.85,1.85,0,1,1-2.62,0,1.84,1.84,0,0,1,2.62,0"/><path class="cls-15" d="M106.07,182.41a1.85,1.85,0,1,1-2.62,0,1.84,1.84,0,0,1,2.62,0"/><line class="cls-15" x1="111.26" y1="175.57" x2="105.92" y2="182.27"/><path class="cls-14" d="M126,184.3a2.74,2.74,0,1,1-3.87,0,2.73,2.73,0,0,1,3.87,0"/><path class="cls-15" d="M126,184.3a2.74,2.74,0,1,1-3.87,0,2.73,2.73,0,0,1,3.87,0"/><line class="cls-15" x1="113.7" y1="175.46" x2="122.2" y2="184.27"/><path class="cls-14" d="M125,170.87a1.27,1.27,0,0,1-1.79,1.79,1.26,1.26,0,0,1,0-1.79,1.27,1.27,0,0,1,1.79,0"/><path class="cls-15" d="M125,170.87a1.27,1.27,0,0,1-1.79,1.79,1.26,1.26,0,0,1,0-1.79,1.27,1.27,0,0,1,1.79,0"/><path class="cls-17" d="M75.05,152.45a1.18,1.18,0,1,1-1.67,0,1.18,1.18,0,0,1,1.67,0"/><path class="cls-15" d="M75.05,152.45a1.18,1.18,0,1,1-1.67,0,1.18,1.18,0,0,1,1.67,0"/></g></svg>