<svg id="Layer_1" data-name="Layer 1" xmlns="http://www.w3.org/2000/svg" xmlns:xlink="http://www.w3.org/1999/xlink" viewBox="0 0 568 557"><defs><style>.cls-1,.cls-11,.cls-12,.cls-13,.cls-14,.cls-4,.cls-6,.cls-7{fill:none;}.cls-2{clip-path:url(#clip-path);}.cls-3{fill:#fff;}.cls-12,.cls-13,.cls-4,.cls-6{stroke:#000;}.cls-11,.cls-13,.cls-14,.cls-4,.cls-6,.cls-7{stroke-linecap:round;}.cls-11,.cls-4,.cls-6,.cls-7{stroke-linejoin:round;}.cls-12,.cls-13,.cls-14,.cls-4,.cls-6{stroke-width:0.5px;}.cls-4{stroke-dasharray:1 4;}.cls-5{fill:#efefef;}.cls-7{stroke:gray;}.cls-8{fill:#ededed;}.cls-9{fill:#d8d8d8;}.cls-10{fill:#e9e9e9;}.cls-11{stroke:#7f8080;}.cls-12,.cls-13,.cls-14{stroke-miterlimit:10;}.cls-14{stroke:#666;}</style><clipPath id="clip-path"><rect class="cls-1" x="15" y="14" width="539" height="530"/></clipPath></defs><title>Artboard 1</title><g class="cls-2"><path class="cls-3" d="M451.79,470.5c7.9-6.8,15.54-13.61,22.86-20.92,105-105,105-275.28,0-380.29A271.07,271.07,0,0,0,442.1,41.5H126.9A271.07,271.07,0,0,0,94.35,69.29c-105,105-105,275.27,0,380.29,7.32,7.31,15,14.12,22.86,20.92Z"/><path class="cls-4" d="M451.79,470.5c7.9-6.8,15.54-13.6,22.86-20.92,105-105,105-275.28,0-380.29A271.07,271.07,0,0,0,442.1,41.5H126.9A271.07,271.07,0,0,0,94.35,69.29c-105,105-105,275.27,0,380.29,7.32,7.32,15,14.12,22.86,20.92Z"/><path class="cls-3" d="M427.58,439.5c6.77-5.89,13.29-11.71,19.55-18,89.82-89.82,89.82-235.44,0-325.26A231.54,231.54,0,0,0,419.3,72.5H149.7a231.54,231.54,0,0,0-27.83,23.77c-89.82,89.82-89.82,235.44,0,325.26,6.26,6.26,12.78,12.08,19.55,18Z"/><path class="cls-4" d="M427.58,439.5c6.76-5.89,13.3-11.71,19.55-18,89.82-89.82,89.82-235.44,0-325.26A231.54,231.54,0,0,0,419.3,72.5H149.7a231.54,231.54,0,0,0-27.83,23.77c-89.82,89.82-89.82,235.44,0,325.26,6.25,6.26,12.79,12.08,19.55,18Z"/><rect class="cls-5" x="105" y="34" width="358" height="444"/><line class="cls-6" x1="284.5" y1="531.44" x2="284.5" y2="51.5"/><rect class="cls-3" x="139.5" y="14.5" width="290" height="37"/><rect class="cls-6" x="139.5" y="14.5" width="290" height="37"/><path d="M261,33.8h-6.63V39H253V27.66h1.42v4.88H261V27.66h1.41V39H261Z"/><path d="M265.46,41.19a1.16,1.16,0,0,0,1.22-.86l.55-1.25-3.44-8.29h1.38l2.74,6.73,2.72-6.73H272l-4.11,9.88a2.44,2.44,0,0,1-2.42,1.66,4,4,0,0,1-.93-.12l.2-1.15A2.11,2.11,0,0,0,265.46,41.19Z"/><path d="M273.35,42.13V30.79h1.27V32a3.45,3.45,0,0,1,2.77-1.42c2.16,0,3.66,1.63,3.66,4.3s-1.5,4.31-3.66,4.31a3.37,3.37,0,0,1-2.77-1.44v4.37Zm3.72-10.41A3.05,3.05,0,0,0,274.62,33v3.71a3.07,3.07,0,0,0,2.45,1.33c1.65,0,2.64-1.36,2.64-3.18S278.72,31.72,277.07,31.72Z"/><path d="M286.68,30.59c2.48,0,3.94,1.93,3.94,4.4v.32H284a2.89,2.89,0,0,0,3,2.84,3.54,3.54,0,0,0,2.53-1l.61.84a4.46,4.46,0,0,1-3.26,1.25,4.07,4.07,0,0,1-4.18-4.31A4.11,4.11,0,0,1,286.68,30.59ZM284,34.38h5.39a2.66,2.66,0,0,0-2.7-2.74A2.75,2.75,0,0,0,284,34.38Z"/><path d="M292.68,30.79H294v1.33a3.49,3.49,0,0,1,2.74-1.5v1.31a2,2,0,0,0-.51-.05A3,3,0,0,0,294,33.19V39h-1.27Z"/><path d="M302.72,27.66h1.41v6.9c0,2.08,1.13,3.39,3.22,3.39s3.21-1.31,3.21-3.39v-6.9H312v6.92c0,2.82-1.55,4.62-4.62,4.62s-4.63-1.82-4.63-4.6Z"/><path d="M314.62,27.66H316V39h-1.41Z"/><rect class="cls-3" x="123.5" y="63.5" width="322" height="185"/><rect class="cls-6" x="123.5" y="63.5" width="322" height="185"/><path d="M208.63,94.3H202v5.2h-1.41V88.16H202V93h6.63V88.16H210V99.5h-1.41Z"/><path d="M213.08,101.69a1.18,1.18,0,0,0,1.23-.86l.54-1.25-3.43-8.29h1.37L215.53,98l2.72-6.73h1.39l-4.11,9.88a2.43,2.43,0,0,1-2.41,1.66,4.1,4.1,0,0,1-.94-.12l.21-1.15A2,2,0,0,0,213.08,101.69Z"/><path d="M221,102.63V91.29h1.28v1.22A3.42,3.42,0,0,1,225,91.09c2.15,0,3.65,1.63,3.65,4.3s-1.5,4.31-3.65,4.31a3.34,3.34,0,0,1-2.77-1.44v4.37Zm3.72-10.41a3,3,0,0,0-2.44,1.31v3.71a3.05,3.05,0,0,0,2.44,1.33c1.65,0,2.64-1.36,2.64-3.18S226.34,92.22,224.69,92.22Z"/><path d="M234.3,91.09c2.48,0,3.94,1.93,3.94,4.4v.32H231.6a2.89,2.89,0,0,0,3,2.84,3.58,3.58,0,0,0,2.54-1l.61.84a4.49,4.49,0,0,1-3.27,1.25,4.31,4.31,0,0,1-.13-8.61Zm-2.7,3.79H237a2.65,2.65,0,0,0-2.7-2.74A2.73,2.73,0,0,0,231.6,94.88Z"/><path d="M240.3,91.29h1.27v1.33a3.51,3.51,0,0,1,2.74-1.5v1.31a2,2,0,0,0-.51-.05,3,3,0,0,0-2.23,1.31V99.5H240.3Z"/><path d="M250.35,88.16h1.41V98.24H257V99.5h-6.68Z"/><path d="M262.19,91.09c2.49,0,3.95,1.93,3.95,4.4v.32h-6.65a2.89,2.89,0,0,0,3,2.84,3.55,3.55,0,0,0,2.53-1l.61.84a4.46,4.46,0,0,1-3.26,1.25,4.31,4.31,0,0,1-.14-8.61Zm-2.7,3.79h5.39a2.66,2.66,0,0,0-2.7-2.74A2.75,2.75,0,0,0,259.49,94.88Z"/><path d="M273.33,98.57a3.58,3.58,0,0,1-2.72,1.13A2.73,2.73,0,0,1,267.74,97a2.69,2.69,0,0,1,2.87-2.7,3.45,3.45,0,0,1,2.72,1.12V93.92c0-1.1-.88-1.73-2.07-1.73a3.27,3.27,0,0,0-2.52,1.14l-.6-.88a4.31,4.31,0,0,1,3.29-1.36c1.73,0,3.17.78,3.17,2.77V99.5h-1.27Zm0-2.35a2.75,2.75,0,0,0-2.26-1,1.81,1.81,0,1,0,0,3.59,2.75,2.75,0,0,0,2.26-1Z"/><path d="M277.15,91.29h1.28v1.33a3.47,3.47,0,0,1,2.74-1.5v1.31a2,2,0,0,0-.51-.05,3,3,0,0,0-2.23,1.31V99.5h-1.28Z"/><path d="M288.31,94.13c0-1.45-.73-1.91-1.84-1.91A3.19,3.19,0,0,0,284,93.5v6h-1.28V91.29H284v1.19A4.07,4.07,0,0,1,287,91.09a2.33,2.33,0,0,1,2.62,2.65V99.5h-1.27Z"/><path d="M291.91,89.05a.86.86,0,0,1,1.72,0,.86.86,0,1,1-1.72,0Zm.22,2.24h1.28V99.5h-1.28Z"/><path d="M301.5,94.13c0-1.45-.73-1.91-1.84-1.91a3.19,3.19,0,0,0-2.43,1.28v6H296V91.29h1.27v1.19a4.07,4.07,0,0,1,2.92-1.39,2.33,2.33,0,0,1,2.62,2.65V99.5H301.5Z"/><path d="M306,100.66a3.16,3.16,0,0,0,2.67,1.12,2.35,2.35,0,0,0,2.64-2.47V98.14a3.45,3.45,0,0,1-2.76,1.46c-2.14,0-3.65-1.6-3.65-4.25s1.49-4.26,3.65-4.26a3.41,3.41,0,0,1,2.76,1.44V91.29h1.27v8c0,2.72-1.9,3.57-3.91,3.57a4.2,4.2,0,0,1-3.31-1.22Zm5.31-7.11a3.05,3.05,0,0,0-2.45-1.33c-1.65,0-2.64,1.31-2.64,3.13s1,3.13,2.64,3.13a3.06,3.06,0,0,0,2.45-1.34Z"/><path d="M319.52,88.16H327v1.26h-6v3.65h5.9v1.26h-5.9v3.91h6V99.5h-7.43Z"/><path d="M334.68,94.13c0-1.45-.73-1.91-1.83-1.91a3.2,3.2,0,0,0-2.44,1.28v6h-1.27V91.29h1.27v1.19a4.08,4.08,0,0,1,2.93-1.39A2.33,2.33,0,0,1,336,93.74V99.5h-1.28Z"/><path d="M339.13,100.66a3.17,3.17,0,0,0,2.67,1.12,2.35,2.35,0,0,0,2.64-2.47V98.14a3.44,3.44,0,0,1-2.75,1.46c-2.15,0-3.66-1.6-3.66-4.25s1.5-4.26,3.66-4.26a3.4,3.4,0,0,1,2.75,1.44V91.29h1.27v8c0,2.72-1.9,3.57-3.91,3.57a4.2,4.2,0,0,1-3.31-1.22Zm5.31-7.11A3,3,0,0,0,342,92.22c-1.65,0-2.63,1.31-2.63,3.13s1,3.13,2.63,3.13a3,3,0,0,0,2.45-1.34Z"/><path d="M348,89.05a.86.86,0,0,1,1.72,0,.86.86,0,1,1-1.72,0Zm.22,2.24h1.28V99.5h-1.28Z"/><path d="M357.63,94.13c0-1.45-.73-1.91-1.84-1.91a3.19,3.19,0,0,0-2.43,1.28v6h-1.27V91.29h1.27v1.19a4.08,4.08,0,0,1,2.93-1.39,2.33,2.33,0,0,1,2.62,2.65V99.5h-1.28Z"/><path d="M365,91.09c2.48,0,3.94,1.93,3.94,4.4v.32h-6.65a2.89,2.89,0,0,0,3,2.84,3.55,3.55,0,0,0,2.53-1l.62.84a4.5,4.5,0,0,1-3.27,1.25,4.31,4.31,0,0,1-.13-8.61Zm-2.71,3.79h5.39a2.66,2.66,0,0,0-2.7-2.74A2.75,2.75,0,0,0,362.32,94.88Z"/><rect class="cls-3" x="123.5" y="260.5" width="322" height="184"/><rect class="cls-6" x="123.5" y="260.5" width="322" height="184"/><path d="M233.4,290.8h-6.63V296h-1.41V284.66h1.41v4.88h6.63v-4.88h1.41V296H233.4Z"/><path d="M237.85,298.19a1.18,1.18,0,0,0,1.23-.86l.54-1.25-3.43-8.29h1.37l2.74,6.73,2.72-6.73h1.39l-4.11,9.88a2.44,2.44,0,0,1-2.41,1.66,4,4,0,0,1-.94-.12l.2-1.15A2.11,2.11,0,0,0,237.85,298.19Z"/><path d="M245.74,299.13V287.79H247V289a3.45,3.45,0,0,1,2.77-1.42c2.16,0,3.66,1.63,3.66,4.3s-1.5,4.31-3.66,4.31a3.37,3.37,0,0,1-2.77-1.44v4.37Zm3.72-10.41A3.07,3.07,0,0,0,247,290v3.71a3.08,3.08,0,0,0,2.45,1.33c1.65,0,2.64-1.36,2.64-3.18S251.11,288.72,249.46,288.72Z"/><path d="M259.07,287.59c2.48,0,3.94,1.93,3.94,4.4v.32h-6.65a2.9,2.9,0,0,0,3,2.84,3.54,3.54,0,0,0,2.53-1l.62.84a4.49,4.49,0,0,1-3.27,1.25,4.31,4.31,0,0,1-.13-8.61Zm-2.71,3.79h5.39a2.65,2.65,0,0,0-2.7-2.74A2.75,2.75,0,0,0,256.36,291.38Z"/><path d="M265.07,287.79h1.27v1.33a3.51,3.51,0,0,1,2.74-1.5v1.31a2,2,0,0,0-.51-.05,3,3,0,0,0-2.23,1.31V296h-1.27Z"/><path d="M282.25,293.48h-5.74l-1,2.52h-1.57l4.56-11.34h1.75L284.82,296h-1.56Zm-5.33-1.25h4.91l-2.45-6.31Z"/><path d="M292.2,294.78a3.46,3.46,0,0,1-2.77,1.42c-2.14,0-3.66-1.63-3.66-4.3s1.5-4.31,3.66-4.31A3.43,3.43,0,0,1,292.2,289v-4.37h1.27V296H292.2Zm0-4.73a3.11,3.11,0,0,0-2.47-1.33c-1.64,0-2.63,1.36-2.63,3.18s1,3.17,2.63,3.17a3.06,3.06,0,0,0,2.47-1.3Z"/><path d="M305.83,284.48a5.42,5.42,0,0,1,4.41,2.12l-1.13.7a4.17,4.17,0,0,0-3.28-1.57,4.62,4.62,0,0,0,0,9.23,4.52,4.52,0,0,0,3.05-1.22v-2.31H305v-1.26h5.31v4.1a5.92,5.92,0,0,1-4.46,2,5.87,5.87,0,0,1,0-11.74Z"/><path d="M312.53,287.79h1.28v1.33a3.47,3.47,0,0,1,2.73-1.5v1.31a1.91,1.91,0,0,0-.51-.05,3,3,0,0,0-2.22,1.31V296h-1.28Z"/><path d="M323.27,295.07a3.57,3.57,0,0,1-2.72,1.13,2.73,2.73,0,0,1-2.87-2.72,2.69,2.69,0,0,1,2.87-2.7,3.43,3.43,0,0,1,2.72,1.12v-1.48c0-1.1-.88-1.73-2.07-1.73a3.25,3.25,0,0,0-2.51,1.14l-.6-.88a4.29,4.29,0,0,1,3.28-1.36c1.73,0,3.18.78,3.18,2.77V296h-1.28Zm0-2.35a2.75,2.75,0,0,0-2.26-1,1.81,1.81,0,1,0,0,3.59,2.75,2.75,0,0,0,2.26-1Z"/><path d="M327.1,299.13V287.79h1.28V289a3.42,3.42,0,0,1,2.77-1.42c2.15,0,3.65,1.63,3.65,4.3s-1.5,4.31-3.65,4.31a3.34,3.34,0,0,1-2.77-1.44v4.37Zm3.72-10.41a3,3,0,0,0-2.44,1.31v3.71a3.05,3.05,0,0,0,2.44,1.33c1.65,0,2.64-1.36,2.64-3.18S332.47,288.72,330.82,288.72Z"/><path d="M342.42,290.59c0-1.44-.75-1.87-1.86-1.87a3.24,3.24,0,0,0-2.43,1.28v6h-1.27V284.66h1.27V289a4.08,4.08,0,0,1,2.94-1.39,2.31,2.31,0,0,1,2.62,2.61V296h-1.27Z"/><rect class="cls-3" x="139.5" y="456.5" width="290" height="37"/><rect class="cls-6" x="139.5" y="456.5" width="290" height="37"/><path d="M209.1,475.34a5.65,5.65,0,0,1,5.78-5.86,5.11,5.11,0,0,1,4.36,2.24l-1.19.66a3.87,3.87,0,0,0-3.17-1.65,4.62,4.62,0,0,0,0,9.22,3.81,3.81,0,0,0,3.17-1.65l1.2.66a5.15,5.15,0,0,1-4.37,2.24A5.66,5.66,0,0,1,209.1,475.34Z"/><path d="M226.56,475.59c0-1.44-.75-1.87-1.85-1.87a3.23,3.23,0,0,0-2.43,1.28v6H221V469.66h1.28V474a4.08,4.08,0,0,1,2.94-1.39,2.31,2.31,0,0,1,2.62,2.61V481h-1.28Z"/><path d="M235.52,480.07a3.57,3.57,0,0,1-2.72,1.13,2.73,2.73,0,0,1-2.87-2.72,2.69,2.69,0,0,1,2.87-2.7,3.45,3.45,0,0,1,2.72,1.12v-1.48c0-1.1-.88-1.73-2.07-1.73a3.27,3.27,0,0,0-2.52,1.14l-.59-.88a4.27,4.27,0,0,1,3.28-1.36c1.73,0,3.18.78,3.18,2.77V481h-1.28Zm0-2.35a2.75,2.75,0,0,0-2.26-1,1.81,1.81,0,1,0,0,3.59,2.75,2.75,0,0,0,2.26-1Z"/><path d="M244.89,475.63c0-1.45-.73-1.91-1.84-1.91a3.19,3.19,0,0,0-2.43,1.28v6h-1.27v-8.21h1.27V474a4.08,4.08,0,0,1,2.93-1.39,2.33,2.33,0,0,1,2.61,2.65V481h-1.27Z"/><path d="M254.26,475.63c0-1.45-.74-1.91-1.84-1.91A3.19,3.19,0,0,0,250,475v6h-1.28v-8.21H250V474a4.07,4.07,0,0,1,2.92-1.39,2.33,2.33,0,0,1,2.62,2.65V481h-1.27Z"/><path d="M261.65,472.59c2.48,0,3.94,1.93,3.94,4.4v.32H259a2.89,2.89,0,0,0,3,2.84,3.57,3.57,0,0,0,2.53-1l.61.84a4.48,4.48,0,0,1-3.26,1.25,4.31,4.31,0,0,1-.14-8.61Zm-2.7,3.79h5.39a2.67,2.67,0,0,0-2.71-2.74A2.74,2.74,0,0,0,259,476.38Z"/><path d="M267.65,469.66h1.28V481h-1.28Z"/><path d="M275.45,475.34a5.65,5.65,0,0,1,5.78-5.86,5.09,5.09,0,0,1,4.36,2.24l-1.19.66a3.87,3.87,0,0,0-3.17-1.65,4.62,4.62,0,0,0,0,9.22,3.81,3.81,0,0,0,3.17-1.65l1.2.66a5.15,5.15,0,0,1-4.37,2.24A5.66,5.66,0,0,1,275.45,475.34Z"/><path d="M286.88,476.89a4.07,4.07,0,1,1,4.06,4.31A4,4,0,0,1,286.88,476.89Zm6.78,0c0-1.67-1-3.17-2.72-3.17s-2.73,1.5-2.73,3.17,1,3.18,2.73,3.18S293.66,478.57,293.66,476.89Z"/><path d="M302.62,475.63c0-1.45-.73-1.91-1.84-1.91a3.19,3.19,0,0,0-2.43,1.28v6h-1.27v-8.21h1.27V474a4.08,4.08,0,0,1,2.93-1.39,2.33,2.33,0,0,1,2.61,2.65V481h-1.27Z"/><path d="M312,475.63c0-1.45-.73-1.91-1.84-1.91a3.19,3.19,0,0,0-2.43,1.28v6h-1.27v-8.21h1.27V474a4.07,4.07,0,0,1,2.92-1.39,2.33,2.33,0,0,1,2.62,2.65V481H312Z"/><path d="M319.38,472.59c2.48,0,3.95,1.93,3.95,4.4v.32h-6.65a2.89,2.89,0,0,0,3,2.84,3.57,3.57,0,0,0,2.53-1l.61.84a4.48,4.48,0,0,1-3.26,1.25,4.31,4.31,0,0,1-.14-8.61Zm-2.7,3.79h5.39a2.67,2.67,0,0,0-2.7-2.74A2.74,2.74,0,0,0,316.68,476.38Z"/><path d="M329,472.59a3.52,3.52,0,0,1,3,1.42l-.85.79a2.43,2.43,0,0,0-2.09-1.08,3.19,3.19,0,0,0,0,6.35,2.46,2.46,0,0,0,2.09-1.08l.85.79a3.52,3.52,0,0,1-3,1.42,4.31,4.31,0,0,1,0-8.61Z"/><path d="M334.05,479.28v-5.37h-1.36v-1.12h1.36v-2.24h1.28v2.24H337v1.12h-1.66V479c0,.61.27,1.06.83,1.06a1.26,1.26,0,0,0,.87-.34l.37.95a2.1,2.1,0,0,1-1.53.52A1.68,1.68,0,0,1,334.05,479.28Z"/><path d="M338.32,476.89a4.07,4.07,0,1,1,4.06,4.31A4,4,0,0,1,338.32,476.89Zm6.78,0c0-1.67-1-3.17-2.72-3.17s-2.73,1.5-2.73,3.17,1,3.18,2.73,3.18S345.1,478.57,345.1,476.89Z"/><path d="M348.52,472.79h1.27v1.33a3.51,3.51,0,0,1,2.74-1.5v1.31a2,2,0,0,0-.51-.05,3,3,0,0,0-2.23,1.31V481h-1.27Z"/><path d="M354.08,479a3.71,3.71,0,0,0,2.7,1.18c1.26,0,1.94-.56,1.94-1.36s-1-1.19-2.11-1.46c-1.39-.33-3-.7-3-2.4,0-1.28,1.1-2.36,3.06-2.36a4.12,4.12,0,0,1,3,1.19l-.6.88a3.17,3.17,0,0,0-2.44-1c-1.13,0-1.82.51-1.82,1.24s.93,1.06,2,1.31c1.43.33,3.08.73,3.08,2.55,0,1.38-1.1,2.48-3.23,2.48a4.33,4.33,0,0,1-3.31-1.29Z"/><path class="cls-3" d="M280.08,325.36a7.3,7.3,0,1,0,10.33,0,7.3,7.3,0,0,0-10.33,0"/><path class="cls-7" d="M280.08,325.36a7.3,7.3,0,1,0,10.33,0,7.3,7.3,0,0,0-10.33,0"/><path class="cls-3" d="M246,355.36a7.3,7.3,0,1,0,10.32,0,7.3,7.3,0,0,0-10.32,0"/><path class="cls-7" d="M246,355.36a7.3,7.3,0,1,0,10.32,0,7.3,7.3,0,0,0-10.32,0"/><path class="cls-3" d="M232,399.32a9.9,9.9,0,1,0,14,0,9.89,9.89,0,0,0-14,0"/><path class="cls-7" d="M232,399.32a9.9,9.9,0,1,0,14,0,9.89,9.89,0,0,0-14,0"/><path class="cls-8" d="M216.92,374.55a5,5,0,1,0,7.07,0,5,5,0,0,0-7.07,0"/><path class="cls-7" d="M216.92,374.55a5,5,0,1,0,7.07,0,5,5,0,0,0-7.07,0"/><path class="cls-9" d="M270.18,383.55a5.9,5.9,0,1,0,8.34,0,5.88,5.88,0,0,0-8.34,0"/><path class="cls-7" d="M270.18,383.55a5.9,5.9,0,1,0,8.34,0,5.88,5.88,0,0,0-8.34,0"/><path class="cls-3" d="M288.1,356.77a5.3,5.3,0,1,0,7.5,0,5.31,5.31,0,0,0-7.5,0"/><path class="cls-7" d="M288.1,356.77a5.3,5.3,0,1,0,7.49,0,5.31,5.31,0,0,0-7.49,0"/><path class="cls-9" d="M327,354.35a5.9,5.9,0,1,0,8.34,0,5.88,5.88,0,0,0-8.34,0"/><path class="cls-7" d="M327,354.35a5.9,5.9,0,1,0,8.34,0,5.88,5.88,0,0,0-8.34,0"/><path class="cls-8" d="M317.61,377a5,5,0,1,0,7.07,0,5,5,0,0,0-7.07,0"/><path class="cls-7" d="M317.61,377a5,5,0,1,0,7.07,0,5,5,0,0,0-7.07,0"/><path class="cls-3" d="M301.71,397.89a5,5,0,1,0,7.07,0,5,5,0,0,0-7.07,0"/><path class="cls-7" d="M301.71,397.89a5,5,0,1,0,7.07,0,5,5,0,0,0-7.07,0"/><path class="cls-3" d="M341.09,401.36a7.3,7.3,0,1,0,10.32,0,7.3,7.3,0,0,0-10.32,0"/><path class="cls-7" d="M341.09,401.36a7.3,7.3,0,1,0,10.32,0,7.28,7.28,0,0,0-10.32,0"/><path class="cls-3" d="M342.71,370.09a5,5,0,1,0,7.07,0,5,5,0,0,0-7.07,0"/><path class="cls-7" d="M342.71,370.09a5,5,0,1,0,7.07,0,5,5,0,0,0-7.07,0"/><path class="cls-3" d="M342.71,370.09a5,5,0,1,0,7.07,0,5,5,0,0,0-7.07,0"/><path class="cls-7" d="M342.71,370.09a5,5,0,1,0,7.07,0,5,5,0,0,0-7.07,0"/><path class="cls-10" d="M239.64,332a3.4,3.4,0,1,0,4.81,0,3.42,3.42,0,0,0-4.81,0"/><path class="cls-7" d="M239.64,332a3.4,3.4,0,1,0,4.81,0,3.42,3.42,0,0,0-4.81,0"/><line class="cls-11" x1="285.5" y1="309.5" x2="285.5" y2="323.22"/><line class="cls-11" x1="279.76" y1="335.34" x2="256.63" y2="355.7"/><line class="cls-11" x1="244.81" y1="364.15" x2="224.79" y2="375.6"/><line class="cls-11" x1="255.89" y1="366.08" x2="270.52" y2="383.23"/><line class="cls-11" x1="249.27" y1="367.58" x2="241.5" y2="396.75"/><line class="cls-11" x1="286.81" y1="337.65" x2="290.71" y2="355.34"/><line class="cls-11" x1="291.48" y1="334.32" x2="326.11" y2="355.45"/><line class="cls-11" x1="296.23" y1="363.51" x2="317.02" y2="377.7"/><line class="cls-11" x1="318.12" y1="384.5" x2="308.28" y2="397.44"/><line class="cls-11" x1="324.62" y1="384.12" x2="341.18" y2="401.27"/><path class="cls-3" d="M356.12,153.84a29.89,29.89,0,1,1-42.27,0,29.88,29.88,0,0,1,42.27,0"/><path class="cls-7" d="M356.12,153.84a29.89,29.89,0,1,1-42.27,0,29.88,29.88,0,0,1,42.27,0"/><path d="M317,175.47a3,3,0,0,1,3.06-3.1,2.67,2.67,0,0,1,2.3,1.19l-.63.35A2,2,0,0,0,320,173a2.44,2.44,0,0,0,0,4.88,2,2,0,0,0,1.67-.87l.64.35a2.7,2.7,0,0,1-2.31,1.19A3,3,0,0,1,317,175.47Z"/><path d="M326.19,175.61c0-.77-.39-1-1-1a1.72,1.72,0,0,0-1.29.67v3.18h-.67v-6h.67v2.28a2.16,2.16,0,0,1,1.56-.73,1.22,1.22,0,0,1,1.39,1.38v3.07h-.68Z"/><path d="M330.93,178a1.89,1.89,0,0,1-1.44.6,1.45,1.45,0,0,1-1.52-1.44,1.43,1.43,0,0,1,1.52-1.43,1.82,1.82,0,0,1,1.44.59v-.78c0-.59-.46-.92-1.09-.92a1.75,1.75,0,0,0-1.34.6l-.31-.46a2.26,2.26,0,0,1,1.74-.72c.91,0,1.68.41,1.68,1.46v3h-.68Zm0-1.25a1.45,1.45,0,0,0-1.19-.54,1,1,0,1,0,0,1.9,1.45,1.45,0,0,0,1.19-.54Z"/><path d="M335.89,175.63c0-.77-.38-1-1-1a1.7,1.7,0,0,0-1.29.67v3.18H333v-4.35h.67v.63a2.16,2.16,0,0,1,1.55-.73,1.24,1.24,0,0,1,1.39,1.4v3.05h-.68Z"/><path d="M340.85,175.63c0-.77-.38-1-1-1a1.7,1.7,0,0,0-1.29.67v3.18h-.67v-4.35h.67v.63a2.16,2.16,0,0,1,1.55-.73,1.24,1.24,0,0,1,1.39,1.4v3.05h-.68Z"/><path d="M344.77,174a2.11,2.11,0,0,1,2.09,2.33v.17h-3.52a1.52,1.52,0,0,0,1.56,1.5,1.89,1.89,0,0,0,1.34-.55l.33.44a2.34,2.34,0,0,1-1.73.67,2.28,2.28,0,0,1-.07-4.56Zm-1.43,2h2.85a1.41,1.41,0,0,0-1.43-1.45A1.45,1.45,0,0,0,343.34,176Z"/><path d="M347.94,172.47h.68v6h-.68Z"/><path d="M349.94,177.41a2,2,0,0,0,1.43.62c.67,0,1-.3,1-.72s-.53-.63-1.12-.77-1.57-.37-1.57-1.27c0-.68.58-1.25,1.62-1.25a2.16,2.16,0,0,1,1.61.63l-.32.46a1.69,1.69,0,0,0-1.29-.55c-.6,0-1,.28-1,.66s.49.56,1.06.7c.75.17,1.63.38,1.63,1.35,0,.72-.59,1.31-1.71,1.31a2.34,2.34,0,0,1-1.76-.68Z"/><rect class="cls-3" x="204.5" y="158.5" width="53" height="33"/><rect class="cls-7" x="204.5" y="158.5" width="53" height="33"/><path d="M222.37,171.92l2.51,6.43h-.94l-.7-1.94h-2.72l-.72,1.94h-.88l2.51-6.43Zm.6,3.77-1.07-3h0l-1.09,3Z"/><path d="M228.88,179.66a2.12,2.12,0,0,1-1.64.57,3.05,3.05,0,0,1-.66-.08,1.72,1.72,0,0,1-.61-.23,1.54,1.54,0,0,1-.46-.42,1.21,1.21,0,0,1-.19-.64h.76a.6.6,0,0,0,.13.35.86.86,0,0,0,.3.23,1.14,1.14,0,0,0,.38.13,1.87,1.87,0,0,0,.4,0,1.34,1.34,0,0,0,.63-.13,1.1,1.1,0,0,0,.44-.36,1.46,1.46,0,0,0,.24-.55,2.66,2.66,0,0,0,.08-.71v-.31h0a1.29,1.29,0,0,1-.6.64,1.9,1.9,0,0,1-.85.2,2,2,0,0,1-.9-.19,1.72,1.72,0,0,1-.65-.51,2,2,0,0,1-.39-.74,3,3,0,0,1-.13-.91,3.64,3.64,0,0,1,.1-.85,2.7,2.7,0,0,1,.36-.79,2,2,0,0,1,.67-.59,2.08,2.08,0,0,1,1-.22,1.73,1.73,0,0,1,.81.19,1.39,1.39,0,0,1,.57.58h0v-.67h.72V178A2.45,2.45,0,0,1,228.88,179.66Zm-1-2.09a1.33,1.33,0,0,0,.43-.42,1.77,1.77,0,0,0,.24-.58,2.8,2.8,0,0,0,.08-.64,2.49,2.49,0,0,0-.08-.61,1.4,1.4,0,0,0-.23-.53,1.18,1.18,0,0,0-.41-.39,1.25,1.25,0,0,0-.61-.14,1.25,1.25,0,0,0-1.06.51,1.65,1.65,0,0,0-.24.54,2.73,2.73,0,0,0-.07.64,3.36,3.36,0,0,0,.06.63,1.77,1.77,0,0,0,.21.57,1.37,1.37,0,0,0,.41.42,1.23,1.23,0,0,0,.63.16A1.26,1.26,0,0,0,227.9,177.57Z"/><path d="M233.85,178.05a2.15,2.15,0,0,1-1.32.39,2.35,2.35,0,0,1-1-.17,1.78,1.78,0,0,1-.69-.51,2,2,0,0,1-.42-.77,3.79,3.79,0,0,1-.16-1,3.05,3.05,0,0,1,.16-1,2.24,2.24,0,0,1,.46-.76,1.92,1.92,0,0,1,.69-.5,2.13,2.13,0,0,1,.88-.18,1.92,1.92,0,0,1,1,.25,2.16,2.16,0,0,1,.66.65,2.72,2.72,0,0,1,.34.87,3.44,3.44,0,0,1,.07.89h-3.48a2.2,2.2,0,0,0,.07.58,1.54,1.54,0,0,0,.26.49,1.29,1.29,0,0,0,.46.33,1.53,1.53,0,0,0,.66.13,1.35,1.35,0,0,0,.8-.23,1.12,1.12,0,0,0,.41-.68h.75A1.83,1.83,0,0,1,233.85,178.05Zm-.19-3a1.31,1.31,0,0,0-.69-.7,1.45,1.45,0,0,0-1.06,0,1.22,1.22,0,0,0-.41.29,1.17,1.17,0,0,0-.27.42,1.41,1.41,0,0,0-.12.5h2.67A1.46,1.46,0,0,0,233.66,175.06Z"/><path d="M236.11,173.69v.74h0a1.63,1.63,0,0,1,1.52-.84,2.09,2.09,0,0,1,.76.12,1.41,1.41,0,0,1,.5.35,1.36,1.36,0,0,1,.26.54,2.91,2.91,0,0,1,.08.69v3.06h-.77V175.2a.87.87,0,0,0-.94-.94,1.58,1.58,0,0,0-.61.11,1.19,1.19,0,0,0-.43.3,1.33,1.33,0,0,0-.25.47,1.76,1.76,0,0,0-.09.58v2.63h-.76v-4.66Z"/><path d="M242.38,173.69v.68h-.93v2.89a1.06,1.06,0,0,0,0,.21.25.25,0,0,0,.09.13.38.38,0,0,0,.18.06h.64v.68h-.59a3.49,3.49,0,0,1-.5,0,.81.81,0,0,1-.35-.15.68.68,0,0,1-.19-.31,1.81,1.81,0,0,1-.06-.52v-3h-.79v-.68h.79V172.3h.76v1.39Z"/><path class="cls-6" d="M229.15,151.51c38.63-43.13,73.12-22.75,84.46-13.84"/><polygon points="316.63 140.29 314.6 136.53 312.63 138.79 316.63 140.29"/><polygon class="cls-12" points="316.63 140.29 314.6 136.53 312.63 138.79 316.63 140.29"/><path class="cls-6" d="M317.53,206.74c-45.28,39.48-76.1,7.57-85.42-4.68"/><polygon points="229.83 198.77 230.88 202.92 233.34 201.21 229.83 198.77"/><polygon class="cls-12" points="229.83 198.77 230.88 202.92 233.34 201.21 229.83 198.77"/><line class="cls-13" x1="155.31" y1="532.5" x2="413.69" y2="532.5"/><line class="cls-14" x1="164.74" y1="532.35" x2="155.31" y2="541.78"/><line class="cls-14" x1="178.94" y1="532.35" x2="169.5" y2="541.78"/><line class="cls-14" x1="193.13" y1="532.35" x2="183.69" y2="541.78"/><line class="cls-14" x1="207.32" y1="532.35" x2="197.89" y2="541.78"/><line class="cls-14" x1="221.51" y1="532.35" x2="212.08" y2="541.78"/><line class="cls-14" x1="235.7" y1="532.35" x2="226.27" y2="541.78"/><line class="cls-14" x1="249.9" y1="532.35" x2="240.46" y2="541.78"/><line class="cls-14" x1="264.09" y1="532.35" x2="254.66" y2="541.78"/><line class="cls-14" x1="278.28" y1="532.35" x2="268.85" y2="541.78"/><line class="cls-14" x1="292.47" y1="532.35" x2="283.04" y2="541.78"/><line class="cls-14" x1="306.67" y1="532.35" x2="297.23" y2="541.78"/><line class="cls-14" x1="320.86" y1="532.35" x2="311.43" y2="541.78"/><line class="cls-14" x1="335.05" y1="532.35" x2="325.62" y2="541.78"/><line class="cls-14" x1="349.25" y1="532.35" x2="339.81" y2="541.78"/><line class="cls-14" x1="363.44" y1="532.35" x2="354" y2="541.78"/><line class="cls-14" x1="377.63" y1="532.35" x2="368.2" y2="541.78"/><line class="cls-14" x1="391.82" y1="532.35" x2="382.39" y2="541.78"/><line class="cls-14" x1="406.02" y1="532.35" x2="396.58" y2="541.78"/></g></svg>