<svg id="Layer_1" data-name="Layer 1" xmlns="http://www.w3.org/2000/svg" xmlns:xlink="http://www.w3.org/1999/xlink" viewBox="0 0 562 549"><defs><style>.cls-1,.cls-10,.cls-11,.cls-12,.cls-4,.cls-8{fill:none;}.cls-2{clip-path:url(#clip-path);}.cls-3{fill:#fff;}.cls-4{stroke:gray;}.cls-10,.cls-11,.cls-4,.cls-8{stroke-linecap:round;stroke-linejoin:round;}.cls-5{fill:#ededed;}.cls-6{fill:#d8d8d8;}.cls-7{fill:#e9e9e9;}.cls-8{stroke:#a5a5a5;stroke-dasharray:1 4;}.cls-10,.cls-12,.cls-8{stroke-width:0.5px;}.cls-9{fill:#efefef;}.cls-10,.cls-12{stroke:#000;}.cls-11{stroke:#7f8080;}.cls-12{stroke-miterlimit:10;}</style><clipPath id="clip-path"><rect class="cls-1" width="562" height="549"/></clipPath></defs><title>Artboard 1</title><g class="cls-2"><path class="cls-3" d="M40.14,411.14a7.3,7.3,0,1,0,10.32,0,7.3,7.3,0,0,0-10.32,0"/><path class="cls-4" d="M40.14,411.14a7.3,7.3,0,1,0,10.32,0,7.3,7.3,0,0,0-10.32,0"/><path class="cls-3" d="M486.84,372.7a7.3,7.3,0,1,0,10.32,0,7.3,7.3,0,0,0-10.32,0"/><path class="cls-4" d="M486.84,372.7a7.3,7.3,0,1,0,10.32,0,7.3,7.3,0,0,0-10.32,0"/><path class="cls-3" d="M54.8,348.4a9.9,9.9,0,1,0,14,0,9.89,9.89,0,0,0-14,0"/><path class="cls-4" d="M54.8,348.4a9.9,9.9,0,1,0,14,0,9.89,9.89,0,0,0-14,0"/><path class="cls-5" d="M490.76,433a5,5,0,1,0,7.08,0,5,5,0,0,0-7.08,0"/><path class="cls-4" d="M490.76,433a5,5,0,1,0,7.08,0,5,5,0,0,0-7.08,0"/><path class="cls-6" d="M66.23,449.43a5.9,5.9,0,1,0,8.34,0,5.88,5.88,0,0,0-8.34,0"/><path class="cls-4" d="M66.23,449.43a5.9,5.9,0,1,0,8.34,0,5.88,5.88,0,0,0-8.34,0"/><path class="cls-3" d="M552.05,404.05a5.3,5.3,0,1,0,7.5,0,5.31,5.31,0,0,0-7.5,0"/><path class="cls-4" d="M552.05,404.05a5.3,5.3,0,1,0,7.5,0,5.31,5.31,0,0,0-7.5,0"/><path class="cls-6" d="M75.23,394.23a5.9,5.9,0,1,0,8.34,0,5.88,5.88,0,0,0-8.34,0"/><path class="cls-4" d="M75.23,394.23a5.9,5.9,0,1,0,8.34,0,5.88,5.88,0,0,0-8.34,0"/><path class="cls-5" d="M2,386A5,5,0,1,0,9,386,5,5,0,0,0,2,386"/><path class="cls-4" d="M2,386A5,5,0,1,0,9,386,5,5,0,0,0,2,386"/><path class="cls-3" d="M515,326a5,5,0,1,0,7.08,0,5,5,0,0,0-7.08,0"/><path class="cls-4" d="M515,326a5,5,0,1,0,7.08,0,5,5,0,0,0-7.08,0"/><path class="cls-3" d="M72.84,311.64a7.3,7.3,0,1,0,10.32,0,7.3,7.3,0,0,0-10.32,0"/><path class="cls-4" d="M72.84,311.64a7.3,7.3,0,1,0,10.32,0,7.3,7.3,0,0,0-10.32,0"/><path class="cls-3" d="M521,462.46a5,5,0,1,0,7.08,0,5,5,0,0,0-7.08,0"/><path class="cls-4" d="M521,462.46a5,5,0,1,0,7.08,0,5,5,0,0,0-7.08,0"/><path class="cls-7" d="M540.5,364.85a3.39,3.39,0,1,0,4.8,0,3.39,3.39,0,0,0-4.8,0"/><path class="cls-4" d="M540.5,364.85a3.39,3.39,0,1,0,4.8,0,3.39,3.39,0,0,0-4.8,0"/><path class="cls-3" d="M521.64,404.64a7.3,7.3,0,1,0,10.32,0,7.3,7.3,0,0,0-10.32,0"/><path class="cls-4" d="M521.64,404.64a7.3,7.3,0,1,0,10.32,0,7.3,7.3,0,0,0-10.32,0"/><path class="cls-7" d="M15.7,425.42a3.4,3.4,0,1,0,4.8,0,3.4,3.4,0,0,0-4.8,0"/><path class="cls-4" d="M15.7,425.42a3.4,3.4,0,1,0,4.8,0,3.4,3.4,0,0,0-4.8,0"/><line class="cls-8" x1="71.64" y1="356.51" x2="275.94" y2="379.6"/><line class="cls-8" x1="52.52" y1="415.19" x2="275.97" y2="380.92"/><line class="cls-8" x1="513.61" y1="330.54" x2="285.8" y2="379.12"/><line class="cls-8" x1="285.74" y1="381.44" x2="489.46" y2="435.22"/><line class="cls-8" x1="10.5" y1="389.33" x2="275.91" y2="380.33"/><line class="cls-8" x1="285.87" y1="380.76" x2="519.55" y2="408.93"/><path class="cls-3" d="M277.37,376.63a5,5,0,1,0,7.07,0,5,5,0,0,0-7.07,0"/><path class="cls-4" d="M277.37,376.62a5,5,0,1,0,7.07,0,5,5,0,0,0-7.07,0"/><rect class="cls-9" x="101" y="49" width="358" height="444"/><line class="cls-10" x1="280.5" y1="546.44" x2="280.5" y2="0.51"/><rect class="cls-3" x="135.5" y="29.5" width="290" height="37"/><rect class="cls-10" x="135.5" y="29.5" width="290" height="37"/><path d="M257,48.8h-6.63V54H249V42.66h1.42v4.88H257V42.66h1.41V54H257Z"/><path d="M261.46,56.19a1.16,1.16,0,0,0,1.22-.86l.55-1.25-3.44-8.29h1.38l2.74,6.73,2.72-6.73H268l-4.11,9.88a2.44,2.44,0,0,1-2.42,1.66,4,4,0,0,1-.93-.12l.2-1.15A2.11,2.11,0,0,0,261.46,56.19Z"/><path d="M269.35,57.13V45.79h1.27V47a3.45,3.45,0,0,1,2.77-1.42c2.16,0,3.66,1.63,3.66,4.3s-1.5,4.31-3.66,4.31a3.37,3.37,0,0,1-2.77-1.44v4.37Zm3.72-10.41A3.05,3.05,0,0,0,270.62,48v3.71a3.07,3.07,0,0,0,2.45,1.33c1.65,0,2.64-1.36,2.64-3.18S274.72,46.72,273.07,46.72Z"/><path d="M282.68,45.59c2.48,0,3.94,1.93,3.94,4.4v.32H280a2.89,2.89,0,0,0,3,2.84,3.54,3.54,0,0,0,2.53-1l.61.84a4.46,4.46,0,0,1-3.26,1.25,4.31,4.31,0,0,1-.13-8.61ZM280,49.38h5.39a2.66,2.66,0,0,0-2.7-2.74A2.75,2.75,0,0,0,280,49.38Z"/><path d="M288.68,45.79H290v1.33a3.49,3.49,0,0,1,2.74-1.5v1.31a2,2,0,0,0-.51,0A3,3,0,0,0,290,48.19V54h-1.27Z"/><path d="M298.72,42.66h1.41v6.9c0,2.08,1.13,3.39,3.22,3.39s3.21-1.31,3.21-3.39v-6.9H308v6.92c0,2.82-1.55,4.62-4.62,4.62s-4.63-1.82-4.63-4.6Z"/><path d="M310.62,42.66H312V54h-1.41Z"/><rect class="cls-3" x="119.5" y="78.5" width="322" height="185"/><rect class="cls-10" x="119.5" y="78.5" width="322" height="185"/><path d="M204.63,109.3H198v5.2h-1.41V103.16H198V108h6.63v-4.88H206V114.5h-1.41Z"/><path d="M209.08,116.69a1.18,1.18,0,0,0,1.23-.86l.54-1.25-3.43-8.29h1.37l2.74,6.73,2.72-6.73h1.39l-4.11,9.88a2.43,2.43,0,0,1-2.41,1.66,4.1,4.1,0,0,1-.94-.12l.21-1.15A2,2,0,0,0,209.08,116.69Z"/><path d="M217,117.63V106.29h1.28v1.22a3.42,3.42,0,0,1,2.77-1.42c2.15,0,3.65,1.63,3.65,4.3s-1.5,4.31-3.65,4.31a3.34,3.34,0,0,1-2.77-1.44v4.37Zm3.72-10.41a3,3,0,0,0-2.44,1.31v3.71a3.05,3.05,0,0,0,2.44,1.33c1.65,0,2.64-1.36,2.64-3.18S222.34,107.22,220.69,107.22Z"/><path d="M230.3,106.09c2.48,0,3.94,1.93,3.94,4.4v.32H227.6a2.89,2.89,0,0,0,3,2.84,3.58,3.58,0,0,0,2.54-1l.61.84a4.49,4.49,0,0,1-3.27,1.25,4.31,4.31,0,0,1-.13-8.61Zm-2.7,3.79H233a2.65,2.65,0,0,0-2.7-2.74A2.73,2.73,0,0,0,227.6,109.88Z"/><path d="M236.3,106.29h1.27v1.33a3.51,3.51,0,0,1,2.74-1.5v1.31a2,2,0,0,0-.51-.05,3,3,0,0,0-2.23,1.31v5.81H236.3Z"/><path d="M246.35,103.16h1.41v10.08H253v1.26h-6.68Z"/><path d="M258.19,106.09c2.49,0,3.95,1.93,3.95,4.4v.32h-6.65a2.89,2.89,0,0,0,3,2.84,3.55,3.55,0,0,0,2.53-1l.61.84a4.46,4.46,0,0,1-3.26,1.25,4.31,4.31,0,0,1-.14-8.61Zm-2.7,3.79h5.39a2.66,2.66,0,0,0-2.7-2.74A2.75,2.75,0,0,0,255.49,109.88Z"/><path d="M269.33,113.57a3.58,3.58,0,0,1-2.72,1.13,2.73,2.73,0,0,1-2.87-2.72,2.69,2.69,0,0,1,2.87-2.7,3.45,3.45,0,0,1,2.72,1.12v-1.48c0-1.1-.88-1.73-2.07-1.73a3.27,3.27,0,0,0-2.52,1.14l-.6-.88a4.31,4.31,0,0,1,3.29-1.36c1.73,0,3.17.78,3.17,2.77v5.64h-1.27Zm0-2.35a2.75,2.75,0,0,0-2.26-1,1.81,1.81,0,1,0,0,3.59,2.75,2.75,0,0,0,2.26-1Z"/><path d="M273.15,106.29h1.28v1.33a3.47,3.47,0,0,1,2.74-1.5v1.31a2,2,0,0,0-.51-.05,3,3,0,0,0-2.23,1.31v5.81h-1.28Z"/><path d="M284.31,109.13c0-1.45-.73-1.91-1.84-1.91A3.19,3.19,0,0,0,280,108.5v6h-1.28v-8.21H280v1.19a4.07,4.07,0,0,1,2.92-1.39,2.33,2.33,0,0,1,2.62,2.65v5.76h-1.27Z"/><path d="M287.91,104.05a.86.86,0,0,1,1.72,0,.86.86,0,1,1-1.72,0Zm.22,2.24h1.28v8.21h-1.28Z"/><path d="M297.5,109.13c0-1.45-.73-1.91-1.84-1.91a3.19,3.19,0,0,0-2.43,1.28v6H292v-8.21h1.27v1.19a4.07,4.07,0,0,1,2.92-1.39,2.33,2.33,0,0,1,2.62,2.65v5.76H297.5Z"/><path d="M302,115.66a3.16,3.16,0,0,0,2.67,1.12,2.35,2.35,0,0,0,2.64-2.47v-1.17a3.45,3.45,0,0,1-2.76,1.46c-2.14,0-3.65-1.6-3.65-4.25s1.49-4.26,3.65-4.26a3.41,3.41,0,0,1,2.76,1.44v-1.24h1.27v8c0,2.72-1.9,3.57-3.91,3.57a4.2,4.2,0,0,1-3.31-1.22Zm5.31-7.11a3.05,3.05,0,0,0-2.45-1.33c-1.65,0-2.64,1.31-2.64,3.13s1,3.13,2.64,3.13a3.06,3.06,0,0,0,2.45-1.34Z"/><path d="M315.52,103.16H323v1.26h-6v3.65h5.9v1.26h-5.9v3.91h6v1.26h-7.43Z"/><path d="M330.68,109.13c0-1.45-.73-1.91-1.83-1.91a3.2,3.2,0,0,0-2.44,1.28v6h-1.27v-8.21h1.27v1.19a4.08,4.08,0,0,1,2.93-1.39,2.33,2.33,0,0,1,2.62,2.65v5.76h-1.28Z"/><path d="M335.13,115.66a3.17,3.17,0,0,0,2.67,1.12,2.35,2.35,0,0,0,2.64-2.47v-1.17a3.44,3.44,0,0,1-2.75,1.46c-2.15,0-3.66-1.6-3.66-4.25s1.5-4.26,3.66-4.26a3.4,3.4,0,0,1,2.75,1.44v-1.24h1.27v8c0,2.72-1.9,3.57-3.91,3.57a4.2,4.2,0,0,1-3.31-1.22Zm5.31-7.11a3,3,0,0,0-2.45-1.33c-1.65,0-2.63,1.31-2.63,3.13s1,3.13,2.63,3.13a3,3,0,0,0,2.45-1.34Z"/><path d="M344,104.05a.86.86,0,0,1,1.72,0,.86.86,0,1,1-1.72,0Zm.22,2.24h1.28v8.21h-1.28Z"/><path d="M353.63,109.13c0-1.45-.73-1.91-1.84-1.91a3.19,3.19,0,0,0-2.43,1.28v6h-1.27v-8.21h1.27v1.19a4.08,4.08,0,0,1,2.93-1.39,2.33,2.33,0,0,1,2.62,2.65v5.76h-1.28Z"/><path d="M361,106.09c2.48,0,3.94,1.93,3.94,4.4v.32h-6.65a2.89,2.89,0,0,0,3,2.84,3.55,3.55,0,0,0,2.53-1l.62.84a4.5,4.5,0,0,1-3.27,1.25,4.31,4.31,0,0,1-.13-8.61Zm-2.71,3.79h5.39a2.66,2.66,0,0,0-2.7-2.74A2.75,2.75,0,0,0,358.32,109.88Z"/><rect class="cls-3" x="119.5" y="275.5" width="322" height="184"/><rect class="cls-10" x="119.5" y="275.5" width="322" height="184"/><path d="M229.4,305.8h-6.63V311h-1.41V299.66h1.41v4.88h6.63v-4.88h1.41V311H229.4Z"/><path d="M233.85,313.19a1.18,1.18,0,0,0,1.23-.86l.54-1.25-3.43-8.29h1.37l2.74,6.73,2.72-6.73h1.39l-4.11,9.88a2.44,2.44,0,0,1-2.41,1.66,4,4,0,0,1-.94-.12l.2-1.15A2.11,2.11,0,0,0,233.85,313.19Z"/><path d="M241.74,314.13V302.79H243V304a3.45,3.45,0,0,1,2.77-1.42c2.16,0,3.66,1.63,3.66,4.3s-1.5,4.31-3.66,4.31a3.37,3.37,0,0,1-2.77-1.44v4.37Zm3.72-10.41A3.07,3.07,0,0,0,243,305v3.71a3.08,3.08,0,0,0,2.45,1.33c1.65,0,2.64-1.36,2.64-3.18S247.11,303.72,245.46,303.72Z"/><path d="M255.07,302.59c2.48,0,3.94,1.93,3.94,4.4v.32h-6.65a2.9,2.9,0,0,0,3,2.84,3.54,3.54,0,0,0,2.53-1l.62.84a4.49,4.49,0,0,1-3.27,1.25,4.31,4.31,0,0,1-.13-8.61Zm-2.71,3.79h5.39a2.65,2.65,0,0,0-2.7-2.74A2.75,2.75,0,0,0,252.36,306.38Z"/><path d="M261.07,302.79h1.27v1.33a3.51,3.51,0,0,1,2.74-1.5v1.31a2,2,0,0,0-.51-.05,3,3,0,0,0-2.23,1.31V311h-1.27Z"/><path d="M278.25,308.48h-5.74l-1,2.52h-1.57l4.56-11.34h1.75L280.82,311h-1.56Zm-5.33-1.25h4.91l-2.45-6.31Z"/><path d="M288.2,309.78a3.46,3.46,0,0,1-2.77,1.42c-2.14,0-3.66-1.63-3.66-4.3s1.5-4.31,3.66-4.31A3.43,3.43,0,0,1,288.2,304v-4.37h1.27V311H288.2Zm0-4.73a3.11,3.11,0,0,0-2.47-1.33c-1.64,0-2.63,1.36-2.63,3.18s1,3.17,2.63,3.17a3.06,3.06,0,0,0,2.47-1.3Z"/><path d="M301.83,299.48a5.42,5.42,0,0,1,4.41,2.12l-1.13.7a4.17,4.17,0,0,0-3.28-1.57,4.62,4.62,0,0,0,0,9.23,4.52,4.52,0,0,0,3.05-1.22v-2.31H301v-1.26h5.31v4.1a5.92,5.92,0,0,1-4.46,2,5.87,5.87,0,0,1,0-11.74Z"/><path d="M308.53,302.79h1.28v1.33a3.47,3.47,0,0,1,2.73-1.5v1.31a1.91,1.91,0,0,0-.51-.05,3,3,0,0,0-2.22,1.31V311h-1.28Z"/><path d="M319.27,310.07a3.57,3.57,0,0,1-2.72,1.13,2.73,2.73,0,0,1-2.87-2.72,2.69,2.69,0,0,1,2.87-2.7,3.43,3.43,0,0,1,2.72,1.12v-1.48c0-1.1-.88-1.73-2.07-1.73a3.25,3.25,0,0,0-2.51,1.14l-.6-.88a4.29,4.29,0,0,1,3.28-1.36c1.73,0,3.18.78,3.18,2.77V311h-1.28Zm0-2.35a2.75,2.75,0,0,0-2.26-1,1.81,1.81,0,1,0,0,3.59,2.75,2.75,0,0,0,2.26-1Z"/><path d="M323.1,314.13V302.79h1.28V304a3.42,3.42,0,0,1,2.77-1.42c2.15,0,3.65,1.63,3.65,4.3s-1.5,4.31-3.65,4.31a3.34,3.34,0,0,1-2.77-1.44v4.37Zm3.72-10.41a3,3,0,0,0-2.44,1.31v3.71a3.05,3.05,0,0,0,2.44,1.33c1.65,0,2.64-1.36,2.64-3.18S328.47,303.72,326.82,303.72Z"/><path d="M338.42,305.59c0-1.44-.75-1.87-1.86-1.87a3.26,3.26,0,0,0-2.43,1.28v6h-1.27V299.66h1.27V304a4.08,4.08,0,0,1,2.94-1.39,2.31,2.31,0,0,1,2.62,2.61V311h-1.27Z"/><rect class="cls-3" x="135.5" y="471.5" width="290" height="37"/><rect class="cls-10" x="135.5" y="471.5" width="290" height="37"/><path d="M205.1,490.34a5.65,5.65,0,0,1,5.78-5.86,5.11,5.11,0,0,1,4.36,2.24l-1.19.66a3.87,3.87,0,0,0-3.17-1.65,4.62,4.62,0,0,0,0,9.22,3.81,3.81,0,0,0,3.17-1.65l1.2.66a5.15,5.15,0,0,1-4.37,2.24A5.66,5.66,0,0,1,205.1,490.34Z"/><path d="M222.56,490.59c0-1.44-.75-1.87-1.85-1.87a3.23,3.23,0,0,0-2.43,1.28v6H217V484.66h1.28V489a4.08,4.08,0,0,1,2.94-1.39,2.31,2.31,0,0,1,2.62,2.61V496h-1.28Z"/><path d="M231.52,495.07a3.57,3.57,0,0,1-2.72,1.13,2.73,2.73,0,0,1-2.87-2.72,2.69,2.69,0,0,1,2.87-2.7,3.45,3.45,0,0,1,2.72,1.12v-1.48c0-1.1-.88-1.73-2.07-1.73a3.27,3.27,0,0,0-2.52,1.14l-.59-.88a4.27,4.27,0,0,1,3.28-1.36c1.73,0,3.18.78,3.18,2.77V496h-1.28Zm0-2.35a2.75,2.75,0,0,0-2.26-1,1.81,1.81,0,1,0,0,3.59,2.75,2.75,0,0,0,2.26-1Z"/><path d="M240.89,490.63c0-1.45-.73-1.91-1.84-1.91a3.19,3.19,0,0,0-2.43,1.28v6h-1.27v-8.21h1.27V489a4.08,4.08,0,0,1,2.93-1.39,2.33,2.33,0,0,1,2.61,2.65V496h-1.27Z"/><path d="M250.26,490.63c0-1.45-.74-1.91-1.84-1.91A3.19,3.19,0,0,0,246,490v6h-1.28v-8.21H246V489a4.07,4.07,0,0,1,2.92-1.39,2.33,2.33,0,0,1,2.62,2.65V496h-1.27Z"/><path d="M257.65,487.59c2.48,0,3.94,1.93,3.94,4.4v.32H255a2.89,2.89,0,0,0,3,2.84,3.57,3.57,0,0,0,2.53-1l.61.84a4.48,4.48,0,0,1-3.26,1.25,4.31,4.31,0,0,1-.14-8.61Zm-2.7,3.79h5.39a2.67,2.67,0,0,0-2.71-2.74A2.74,2.74,0,0,0,255,491.38Z"/><path d="M263.65,484.66h1.28V496h-1.28Z"/><path d="M271.45,490.34a5.65,5.65,0,0,1,5.78-5.86,5.09,5.09,0,0,1,4.36,2.24l-1.19.66a3.87,3.87,0,0,0-3.17-1.65,4.62,4.62,0,0,0,0,9.22,3.81,3.81,0,0,0,3.17-1.65l1.2.66a5.15,5.15,0,0,1-4.37,2.24A5.66,5.66,0,0,1,271.45,490.34Z"/><path d="M282.88,491.89a4.07,4.07,0,1,1,4.06,4.31A4,4,0,0,1,282.88,491.89Zm6.78,0c0-1.67-1-3.17-2.72-3.17s-2.73,1.5-2.73,3.17,1,3.18,2.73,3.18S289.66,493.57,289.66,491.89Z"/><path d="M298.62,490.63c0-1.45-.73-1.91-1.84-1.91a3.19,3.19,0,0,0-2.43,1.28v6h-1.27v-8.21h1.27V489a4.08,4.08,0,0,1,2.93-1.39,2.33,2.33,0,0,1,2.61,2.65V496h-1.27Z"/><path d="M308,490.63c0-1.45-.73-1.91-1.84-1.91a3.19,3.19,0,0,0-2.43,1.28v6h-1.27v-8.21h1.27V489a4.07,4.07,0,0,1,2.92-1.39,2.33,2.33,0,0,1,2.62,2.65V496H308Z"/><path d="M315.38,487.59c2.48,0,3.95,1.93,3.95,4.4v.32h-6.65a2.89,2.89,0,0,0,3,2.84,3.57,3.57,0,0,0,2.53-1l.61.84a4.48,4.48,0,0,1-3.26,1.25,4.31,4.31,0,0,1-.14-8.61Zm-2.7,3.79h5.39a2.67,2.67,0,0,0-2.7-2.74A2.74,2.74,0,0,0,312.68,491.38Z"/><path d="M325,487.59a3.52,3.52,0,0,1,3,1.42l-.85.79a2.43,2.43,0,0,0-2.09-1.08,3.19,3.19,0,0,0,0,6.35,2.46,2.46,0,0,0,2.09-1.08l.85.79a3.52,3.52,0,0,1-3,1.42,4.31,4.31,0,0,1,0-8.61Z"/><path d="M330.05,494.28v-5.37h-1.36v-1.12h1.36v-2.24h1.28v2.24H333v1.12h-1.66V494c0,.61.27,1.06.83,1.06a1.26,1.26,0,0,0,.87-.34l.37.95a2.1,2.1,0,0,1-1.53.52A1.68,1.68,0,0,1,330.05,494.28Z"/><path d="M334.32,491.89a4.07,4.07,0,1,1,4.06,4.31A4,4,0,0,1,334.32,491.89Zm6.78,0c0-1.67-1-3.17-2.72-3.17s-2.73,1.5-2.73,3.17,1,3.18,2.73,3.18S341.1,493.57,341.1,491.89Z"/><path d="M344.52,487.79h1.27v1.33a3.51,3.51,0,0,1,2.74-1.5v1.31a2,2,0,0,0-.51-.05,3,3,0,0,0-2.23,1.31V496h-1.27Z"/><path d="M350.08,494a3.71,3.71,0,0,0,2.7,1.18c1.26,0,1.94-.56,1.94-1.36s-1-1.19-2.11-1.46c-1.39-.33-3-.7-3-2.4,0-1.28,1.1-2.36,3.06-2.36a4.12,4.12,0,0,1,3,1.19l-.6.88a3.17,3.17,0,0,0-2.44-1c-1.13,0-1.82.51-1.82,1.24s.93,1.06,2,1.31c1.43.33,3.08.73,3.08,2.55,0,1.38-1.1,2.48-3.23,2.48a4.33,4.33,0,0,1-3.31-1.29Z"/><path class="cls-3" d="M276.08,340.36a7.3,7.3,0,1,0,10.33,0,7.3,7.3,0,0,0-10.33,0"/><path class="cls-4" d="M276.08,340.36a7.3,7.3,0,1,0,10.33,0,7.3,7.3,0,0,0-10.33,0"/><path class="cls-3" d="M242,370.36a7.3,7.3,0,1,0,10.32,0,7.3,7.3,0,0,0-10.32,0"/><path class="cls-4" d="M242,370.36a7.3,7.3,0,1,0,10.32,0,7.3,7.3,0,0,0-10.32,0"/><path class="cls-3" d="M228,414.32a9.9,9.9,0,1,0,14,0,9.89,9.89,0,0,0-14,0"/><path class="cls-4" d="M228,414.32a9.9,9.9,0,1,0,14,0,9.89,9.89,0,0,0-14,0"/><path class="cls-5" d="M212.92,389.55a5,5,0,1,0,7.07,0,5,5,0,0,0-7.07,0"/><path class="cls-4" d="M212.92,389.55a5,5,0,1,0,7.07,0,5,5,0,0,0-7.07,0"/><path class="cls-6" d="M266.18,398.55a5.9,5.9,0,1,0,8.34,0,5.88,5.88,0,0,0-8.34,0"/><path class="cls-4" d="M266.18,398.55a5.9,5.9,0,1,0,8.34,0,5.88,5.88,0,0,0-8.34,0"/><path class="cls-3" d="M284.1,371.77a5.3,5.3,0,1,0,7.5,0,5.31,5.31,0,0,0-7.5,0"/><path class="cls-4" d="M284.1,371.77a5.3,5.3,0,1,0,7.5,0,5.31,5.31,0,0,0-7.5,0"/><path class="cls-6" d="M323,369.35a5.9,5.9,0,1,0,8.34,0,5.88,5.88,0,0,0-8.34,0"/><path class="cls-4" d="M323,369.35a5.9,5.9,0,1,0,8.34,0,5.88,5.88,0,0,0-8.34,0"/><path class="cls-5" d="M313.61,392a5,5,0,1,0,7.07,0,5,5,0,0,0-7.07,0"/><path class="cls-4" d="M313.61,392a5,5,0,1,0,7.07,0,5,5,0,0,0-7.07,0"/><path class="cls-3" d="M297.71,412.89a5,5,0,1,0,7.07,0,5,5,0,0,0-7.07,0"/><path class="cls-4" d="M297.71,412.89a5,5,0,1,0,7.07,0,5,5,0,0,0-7.07,0"/><path class="cls-3" d="M337.09,416.36a7.3,7.3,0,1,0,10.32,0,7.3,7.3,0,0,0-10.32,0"/><path class="cls-4" d="M337.09,416.36a7.3,7.3,0,1,0,10.32,0,7.3,7.3,0,0,0-10.32,0"/><path class="cls-3" d="M338.71,385.09a5,5,0,1,0,7.07,0,5,5,0,0,0-7.07,0"/><path class="cls-4" d="M338.71,385.09a5,5,0,1,0,7.07,0,5,5,0,0,0-7.07,0"/><path class="cls-3" d="M338.71,385.09a5,5,0,1,0,7.07,0,5,5,0,0,0-7.07,0"/><path class="cls-4" d="M338.71,385.09a5,5,0,1,0,7.07,0,5,5,0,0,0-7.07,0"/><path class="cls-7" d="M235.64,347a3.4,3.4,0,1,0,4.81,0,3.42,3.42,0,0,0-4.81,0"/><path class="cls-4" d="M235.64,347a3.4,3.4,0,1,0,4.81,0,3.42,3.42,0,0,0-4.81,0"/><line class="cls-11" x1="281.5" y1="324.5" x2="281.5" y2="338.22"/><line class="cls-11" x1="275.76" y1="350.34" x2="252.63" y2="370.7"/><line class="cls-11" x1="240.81" y1="379.15" x2="220.79" y2="390.6"/><line class="cls-11" x1="251.89" y1="381.08" x2="266.52" y2="398.23"/><line class="cls-11" x1="245.27" y1="382.58" x2="237.5" y2="411.75"/><line class="cls-11" x1="282.81" y1="352.65" x2="286.71" y2="370.34"/><line class="cls-11" x1="287.48" y1="349.32" x2="322.11" y2="370.45"/><line class="cls-11" x1="292.23" y1="378.51" x2="313.02" y2="392.7"/><line class="cls-11" x1="314.12" y1="399.5" x2="304.28" y2="412.44"/><line class="cls-11" x1="320.62" y1="399.12" x2="337.18" y2="416.27"/><path class="cls-3" d="M352.12,168.84a29.89,29.89,0,1,1-42.27,0,29.88,29.88,0,0,1,42.27,0"/><path class="cls-4" d="M352.12,168.84a29.89,29.89,0,1,1-42.27,0,29.88,29.88,0,0,1,42.27,0"/><path d="M313,190.47a3,3,0,0,1,3.06-3.1,2.67,2.67,0,0,1,2.3,1.19l-.63.35A2,2,0,0,0,316,188a2.44,2.44,0,0,0,0,4.88,2,2,0,0,0,1.67-.87l.64.35a2.7,2.7,0,0,1-2.31,1.19A3,3,0,0,1,313,190.47Z"/><path d="M322.19,190.61c0-.77-.39-1-1-1a1.72,1.72,0,0,0-1.29.67v3.18h-.67v-6h.67v2.28a2.16,2.16,0,0,1,1.56-.73,1.22,1.22,0,0,1,1.39,1.38v3.07h-.68Z"/><path d="M326.93,193a1.89,1.89,0,0,1-1.44.6,1.45,1.45,0,0,1-1.52-1.44,1.43,1.43,0,0,1,1.52-1.43,1.82,1.82,0,0,1,1.44.59v-.78c0-.59-.46-.92-1.09-.92a1.75,1.75,0,0,0-1.34.6l-.31-.46a2.26,2.26,0,0,1,1.74-.72c.91,0,1.68.41,1.68,1.46v3h-.68Zm0-1.25a1.45,1.45,0,0,0-1.19-.54,1,1,0,1,0,0,1.9,1.45,1.45,0,0,0,1.19-.54Z"/><path d="M331.89,190.63c0-.77-.38-1-1-1a1.7,1.7,0,0,0-1.29.67v3.18H329v-4.35h.67v.63a2.16,2.16,0,0,1,1.55-.73,1.24,1.24,0,0,1,1.39,1.4v3.05h-.68Z"/><path d="M336.85,190.63c0-.77-.38-1-1-1a1.7,1.7,0,0,0-1.29.67v3.18h-.67v-4.35h.67v.63a2.16,2.16,0,0,1,1.55-.73,1.24,1.24,0,0,1,1.39,1.4v3.05h-.68Z"/><path d="M340.77,189a2.11,2.11,0,0,1,2.09,2.33v.17h-3.52a1.52,1.52,0,0,0,1.56,1.5,1.89,1.89,0,0,0,1.34-.55l.33.44a2.34,2.34,0,0,1-1.73.67,2.28,2.28,0,0,1-.07-4.56Zm-1.43,2h2.85a1.41,1.41,0,0,0-1.43-1.45A1.45,1.45,0,0,0,339.34,191Z"/><path d="M343.94,187.47h.68v6h-.68Z"/><path d="M345.94,192.41a2,2,0,0,0,1.43.62c.67,0,1-.3,1-.72s-.53-.63-1.12-.77-1.57-.37-1.57-1.27c0-.68.58-1.25,1.62-1.25a2.16,2.16,0,0,1,1.61.63l-.31.46a1.73,1.73,0,0,0-1.3-.55c-.6,0-1,.28-1,.66s.49.56,1.06.7c.75.17,1.63.38,1.63,1.35,0,.72-.59,1.31-1.71,1.31a2.34,2.34,0,0,1-1.76-.68Z"/><rect class="cls-3" x="200.5" y="173.5" width="53" height="33"/><rect class="cls-4" x="200.5" y="173.5" width="53" height="33"/><path d="M218.37,186.92l2.51,6.43h-.94l-.7-1.94h-2.72l-.72,1.94h-.88l2.51-6.43Zm.6,3.77-1.07-3h0l-1.09,3Z"/><path d="M224.88,194.66a2.12,2.12,0,0,1-1.64.57,3.05,3.05,0,0,1-.66-.08,1.72,1.72,0,0,1-.61-.23,1.54,1.54,0,0,1-.46-.42,1.21,1.21,0,0,1-.19-.64h.76a.6.6,0,0,0,.13.35.86.86,0,0,0,.3.23,1.22,1.22,0,0,0,.38.13,1.87,1.87,0,0,0,.4,0,1.34,1.34,0,0,0,.63-.13,1.1,1.1,0,0,0,.44-.36,1.46,1.46,0,0,0,.24-.55,2.66,2.66,0,0,0,.08-.71v-.31h0a1.29,1.29,0,0,1-.6.64,1.9,1.9,0,0,1-.85.2,2,2,0,0,1-.9-.19,1.72,1.72,0,0,1-.65-.51,2,2,0,0,1-.39-.74,3,3,0,0,1-.13-.91,3.64,3.64,0,0,1,.1-.85,2.7,2.7,0,0,1,.36-.79,2,2,0,0,1,.67-.59,2.08,2.08,0,0,1,1-.22,1.73,1.73,0,0,1,.81.19,1.39,1.39,0,0,1,.57.58h0v-.67h.72V193A2.45,2.45,0,0,1,224.88,194.66Zm-1-2.09a1.33,1.33,0,0,0,.43-.42,1.77,1.77,0,0,0,.24-.58,2.8,2.8,0,0,0,.08-.64,2.49,2.49,0,0,0-.08-.61,1.4,1.4,0,0,0-.23-.53,1.18,1.18,0,0,0-.41-.39,1.25,1.25,0,0,0-.61-.14,1.25,1.25,0,0,0-1.06.51,1.65,1.65,0,0,0-.24.54,2.73,2.73,0,0,0-.07.64,3.36,3.36,0,0,0,.06.63,1.77,1.77,0,0,0,.21.57,1.37,1.37,0,0,0,.41.42,1.23,1.23,0,0,0,.63.16A1.26,1.26,0,0,0,223.9,192.57Z"/><path d="M229.85,193.05a2.15,2.15,0,0,1-1.32.39,2.35,2.35,0,0,1-1-.17,1.78,1.78,0,0,1-.69-.51,2,2,0,0,1-.42-.77,3.79,3.79,0,0,1-.16-1,3.05,3.05,0,0,1,.16-1,2.24,2.24,0,0,1,.46-.76,1.92,1.92,0,0,1,.69-.5,2.13,2.13,0,0,1,.88-.18,1.92,1.92,0,0,1,1,.25,2.16,2.16,0,0,1,.66.65,2.72,2.72,0,0,1,.34.87,3.44,3.44,0,0,1,.07.89h-3.48a2.2,2.2,0,0,0,.07.58,1.54,1.54,0,0,0,.26.49,1.29,1.29,0,0,0,.46.33,1.53,1.53,0,0,0,.66.13,1.35,1.35,0,0,0,.8-.23,1.12,1.12,0,0,0,.41-.68h.75A1.83,1.83,0,0,1,229.85,193.05Zm-.19-3a1.31,1.31,0,0,0-.69-.7,1.45,1.45,0,0,0-1.06,0,1.22,1.22,0,0,0-.41.29,1.17,1.17,0,0,0-.27.42,1.41,1.41,0,0,0-.12.5h2.67A1.46,1.46,0,0,0,229.66,190.06Z"/><path d="M232.11,188.69v.74h0a1.63,1.63,0,0,1,1.52-.84,2.09,2.09,0,0,1,.76.12,1.41,1.41,0,0,1,.5.35,1.36,1.36,0,0,1,.26.54,2.91,2.91,0,0,1,.08.69v3.06h-.77V190.2a.87.87,0,0,0-.94-.94,1.58,1.58,0,0,0-.61.11,1.19,1.19,0,0,0-.43.3,1.33,1.33,0,0,0-.25.47,1.76,1.76,0,0,0-.09.58v2.63h-.76v-4.66Z"/><path d="M238.38,188.69v.68h-.93v2.89a1.06,1.06,0,0,0,0,.21.25.25,0,0,0,.09.13.38.38,0,0,0,.18.06h.64v.68h-.59a3.49,3.49,0,0,1-.5,0,.81.81,0,0,1-.35-.15.68.68,0,0,1-.19-.31,1.81,1.81,0,0,1-.06-.52v-3h-.79v-.68h.79V187.3h.76v1.39Z"/><path class="cls-10" d="M225.15,166.51c38.63-43.13,73.12-22.75,84.46-13.84"/><polygon points="312.63 155.29 310.6 151.53 308.63 153.79 312.63 155.29"/><polygon class="cls-12" points="312.63 155.29 310.6 151.53 308.63 153.79 312.63 155.29"/><path class="cls-10" d="M313.53,221.74c-45.28,39.48-76.1,7.57-85.42-4.68"/><polygon points="225.83 213.77 226.88 217.92 229.34 216.21 225.83 213.77"/><polygon class="cls-12" points="225.83 213.77 226.88 217.92 229.34 216.21 225.83 213.77"/><polyline class="cls-12" points="249.13 545.32 255.49 546.44 261.84 544.21 268.2 546.44 274.55 544.21 280.91 546.44 287.27 544.21 293.62 546.44 299.98 544.21 306.33 546.44 312.69 545.32"/></g></svg>