<?xml version="1.0" encoding="utf-8"?>
<!-- Generator: Adobe Illustrator 19.1.0, SVG Export Plug-In . SVG Version: 6.00 Build 0)  -->
<svg version="1.1" id="Layer_1" xmlns="http://www.w3.org/2000/svg" xmlns:xlink="http://www.w3.org/1999/xlink" x="0px" y="0px"
	 viewBox="0 0 504 247.5" style="enable-background:new 0 0 504 247.5;" xml:space="preserve">
<style type="text/css">
	.ct0{fill:#F2F2F2;}
	.ct1{fill:none;stroke:#B3B3B3;stroke-width:0.5;stroke-miterlimit:10;stroke-dasharray:1,2;}
	.ct2{fill:#FFFFFF;stroke:#B3B3B3;stroke-width:0.5;stroke-miterlimit:10;}
	.ct3{font-weight:200;}
	.ct4{font-size:8px;}
	.ct5{font-weight:normal;}
	.ct6{font-size:10px;}
	.ct7{fill:none;stroke:#B3B3B3;stroke-width:0.5;stroke-miterlimit:10;stroke-dasharray:1,1;}
	.ct8{fill:#FFFFFF;stroke:#666666;stroke-width:0.5;stroke-miterlimit:10;}
</style>
<rect x="76.5" y="45" class="ct0" width="172.1" height="166.5"/>
<line class="ct1" x1="162.6" y1="27" x2="162.6" y2="229.5"/>
<rect x="94.5" y="35.5" class="ct2" width="136.1" height="36.5"/>
<text transform="matrix(1 0 0 1 147.3514 51.1743)"><tspan x="0" y="0" class="ct3 ct4">Hyper UI</tspan><tspan x="-37" y="9.6" class="ct5 ct4">Interactive, Timeline-Based UI</tspan></text>
<rect x="94.5" y="157.5" class="ct2" width="136.1" height="18"/>
<text transform="matrix(1 0 0 1 108.7196 168.7461)" class="ct5 ct4">Multichannel Allocation Engine</text>
<rect x="94.5" y="180" class="ct2" width="136.1" height="18"/>
<text transform="matrix(1 0 0 1 119.3353 191.2461)" class="ct5 ct4">Demand-Side Taxonomy</text>
<rect x="94.5" y="202.5" class="ct2" width="136.1" height="18"/>
<text transform="matrix(1 0 0 1 114.3753 213.7461)" class="ct5 ct4">Graph-Based Normalization</text>
<text transform="matrix(1 0 0 1 82.4641 17.9999)" class="ct5 ct6">Project Hyper Software Components</text>
<line class="ct1" x1="90.6" y1="229.5" x2="234.6" y2="229.5"/>
<line class="ct7" x1="92.8" y1="233.5" x2="95.1" y2="230.5"/>
<line class="ct7" x1="99.2" y1="233.5" x2="101.5" y2="230.5"/>
<line class="ct7" x1="105.6" y1="233.5" x2="107.9" y2="230.5"/>
<line class="ct7" x1="112.1" y1="233.5" x2="114.3" y2="230.5"/>
<line class="ct7" x1="118.5" y1="233.5" x2="120.8" y2="230.5"/>
<line class="ct7" x1="124.9" y1="233.5" x2="127.2" y2="230.5"/>
<line class="ct7" x1="169.9" y1="233.5" x2="172.2" y2="230.5"/>
<line class="ct7" x1="137.8" y1="233.5" x2="140.1" y2="230.5"/>
<line class="ct7" x1="131.3" y1="233.5" x2="133.6" y2="230.5"/>
<line class="ct7" x1="144.2" y1="233.5" x2="146.5" y2="230.5"/>
<line class="ct7" x1="150.6" y1="233.5" x2="152.9" y2="230.5"/>
<line class="ct7" x1="157.1" y1="233.5" x2="159.3" y2="230.5"/>
<line class="ct7" x1="163.5" y1="233.5" x2="165.8" y2="230.5"/>
<line class="ct7" x1="176.3" y1="233.5" x2="178.6" y2="230.5"/>
<line class="ct7" x1="182.8" y1="233.5" x2="185.1" y2="230.5"/>
<line class="ct7" x1="189.2" y1="233.5" x2="191.5" y2="230.5"/>
<line class="ct7" x1="202.1" y1="233.5" x2="204.3" y2="230.5"/>
<line class="ct7" x1="195.6" y1="233.5" x2="197.9" y2="230.5"/>
<line class="ct7" x1="208.5" y1="233.5" x2="210.8" y2="230.5"/>
<line class="ct7" x1="221.3" y1="233.5" x2="223.6" y2="230.5"/>
<line class="ct7" x1="214.9" y1="233.5" x2="217.2" y2="230.5"/>
<line class="ct7" x1="227.8" y1="233.5" x2="230.1" y2="230.5"/>
<line class="ct1" x1="256.6" y1="45" x2="256.6" y2="211.5"/>
<line class="ct1" x1="257.2" y1="92" x2="297" y2="92"/>
<text transform="matrix(1 0 0 1 301.4996 84.7178)"><tspan x="0" y="0" class="ct5 ct4">Built and deployed with:</tspan><tspan x="0" y="9.6" class="ct3 ct4">Python, Java, Django, PJAX, D3</tspan><tspan x="0" y="19.2" class="ct3 ct4">EC2, RDS, RedShift, Memcached, MongoDB</tspan></text>
<rect x="90" y="76.5" class="ct8" width="145.1" height="76.5"/>
<text transform="matrix(1 0 0 1 128.7989 112.1963)"><tspan x="0" y="0" class="ct3 ct4">Hyperactive Engine</tspan><tspan x="4.7" y="9.6" class="ct5 ct4">Search-Based AI</tspan></text>
</svg>
