<?xml version="1.0" encoding="utf-8"?>
<!-- Generator: Adobe Illustrator 19.1.0, SVG Export Plug-In . SVG Version: 6.00 Build 0)  -->
<svg version="1.1" id="Layer_1" xmlns="http://www.w3.org/2000/svg" xmlns:xlink="http://www.w3.org/1999/xlink" x="0px" y="0px"
	 viewBox="0 0 504 256.5" style="enable-background:new 0 0 504 256.5;" xml:space="preserve">
<style type="text/css">
	.bt0{fill:none;stroke:#B3B3B3;stroke-width:0.5;stroke-miterlimit:10;stroke-dasharray:1,2;}
	.bt1{fill:#FFFFFF;}
	.bt2{fill:#FFFFFF;stroke:#B3B3B3;stroke-width:0.5;stroke-miterlimit:10;}
	.bt3{fill:#F2F2F2;stroke:#B3B3B3;stroke-width:0.5;stroke-miterlimit:10;}
	.bt4{font-weight:normal;}
	.bt5{font-size:8px;}
	.bt6{fill:#B3B3B3;}
	.bt7{font-weighy:200;}
	.bt8{font-size:10px;}
	.bt9{fill:#5572B6;}
	.bt10{fill:#F54028;}
	.bt11{fill:#38B9F7;}
	.bt12{fill:#99725D;}
	.bt13{fill:#DA1F01;}
</style>
<line class="bt0" x1="180" y1="9" x2="180" y2="243"/>
<rect x="171" y="95.5" class="bt1" width="18" height="12.5"/>
<circle class="bt2" cx="222.8" cy="233.4" r="2.2"/>
<circle class="bt2" cx="224.9" cy="226.7" r="2.2"/>
<circle class="bt2" cx="215.8" cy="220.6" r="2.2"/>
<circle class="bt2" cx="210.1" cy="210.2" r="2.2"/>
<circle class="bt2" cx="215.8" cy="199.7" r="2.2"/>
<circle class="bt2" cx="222.6" cy="204.9" r="2.2"/>
<circle class="bt2" cx="248.6" cy="196.2" r="2.2"/>
<circle class="bt2" cx="231" cy="199.1" r="2.2"/>
<circle class="bt2" cx="255.5" cy="205.7" r="2.2"/>
<circle class="bt2" cx="246.3" cy="222.8" r="2.2"/>
<circle class="bt2" cx="240" cy="229" r="2.2"/>
<circle class="bt2" cx="245.3" cy="210.9" r="2.2"/>
<circle class="bt2" cx="268.7" cy="234" r="2.2"/>
<circle class="bt2" cx="257.7" cy="214.7" r="2.2"/>
<circle class="bt2" cx="277.7" cy="212.4" r="2.2"/>
<circle class="bt2" cx="271" cy="217.7" r="2.2"/>
<circle class="bt2" cx="273.2" cy="197.8" r="2.2"/>
<circle class="bt2" cx="267.8" cy="207.2" r="2.2"/>
<circle class="bt2" cx="275.5" cy="226.2" r="2.2"/>
<circle class="bt2" cx="256.5" cy="226.7" r="4.5"/>
<circle class="bt2" cx="231" cy="213.5" r="4.5"/>
<line class="bt0" x1="243" y1="72" x2="243" y2="184.5"/>
<rect x="216" y="81" class="bt3" width="54" height="18"/>
<rect x="216" y="103.5" class="bt3" width="54" height="31.5"/>
<rect x="216" y="139.5" class="bt3" width="54" height="31.5"/>
<text transform="matrix(1 0 0 1 236.8962 152.7241)"><tspan x="0" y="0" class="bt4 bt5">IAB</tspan><tspan x="-8.8" y="9.6" class="bt4 bt5">Ad Units</tspan></text>
<text transform="matrix(1 0 0 1 230.5125 116.7241)"><tspan x="0" y="0" class="bt4 bt5">Cookie</tspan><tspan x="-4.3" y="9.6" class="bt4 bt5">Targeting</tspan></text>
<text transform="matrix(1 0 0 1 224.9363 92.2739)" class="bt4 bt5">Open RTB</text>
<line class="bt0" x1="302.5" y1="72" x2="302.5" y2="202.5"/>
<rect x="295.4" y="81" class="bt3" width="14.2" height="18"/>
<rect x="295.4" y="103.5" class="bt3" width="14.2" height="31.5"/>
<rect x="295.4" y="139.5" class="bt3" width="14.2" height="31.5"/>
<line class="bt0" x1="397.9" y1="72" x2="397.9" y2="184.5"/>
<rect x="390.8" y="81" class="bt3" width="14.2" height="18"/>
<rect x="390.8" y="103.5" class="bt3" width="14.2" height="31.5"/>
<rect x="390.8" y="139.5" class="bt3" width="14.2" height="31.5"/>
<line class="bt0" x1="415.9" y1="72" x2="415.9" y2="211.5"/>
<rect x="408.8" y="81" class="bt3" width="14.2" height="18"/>
<rect x="408.8" y="103.5" class="bt3" width="14.2" height="31.5"/>
<rect x="408.8" y="139.5" class="bt3" width="14.2" height="31.5"/>
<line class="bt0" x1="433.9" y1="72" x2="433.9" y2="201.5"/>
<rect x="426.8" y="81" class="bt3" width="14.2" height="18"/>
<rect x="426.8" y="103.5" class="bt3" width="14.2" height="31.5"/>
<rect x="426.8" y="139.5" class="bt3" width="14.2" height="31.5"/>
<line class="bt0" x1="451.9" y1="72" x2="451.9" y2="218.3"/>
<rect x="444.8" y="81" class="bt2" width="14.2" height="18"/>
<rect x="444.8" y="103.5" class="bt2" width="14.2" height="31.5"/>
<rect x="444.8" y="139.5" class="bt2" width="14.2" height="31.5"/>
<line class="bt0" x1="469.9" y1="72" x2="469.9" y2="211.5"/>
<rect x="462.8" y="81" class="bt2" width="14.2" height="18"/>
<rect x="462.8" y="103.5" class="bt2" width="14.2" height="31.5"/>
<rect x="462.8" y="139.5" class="bt2" width="14.2" height="31.5"/>
<line class="bt0" x1="350.7" y1="72" x2="350.7" y2="211.5"/>
<rect x="314.3" y="81" class="bt3" width="72.7" height="18"/>
<rect x="314.3" y="103.5" class="bt3" width="72.7" height="31.5"/>
<rect x="314.3" y="139.5" class="bt3" width="72.7" height="31.5"/>
<text transform="matrix(1 0 0 1 333.2016 152.7241)"><tspan x="0" y="0" class="bt4 bt5">Facebook</tspan><tspan x="2.6" y="9.6" class="bt4 bt5">Ad Units</tspan></text>
<text transform="matrix(1 0 0 1 333.2016 116.7241)"><tspan x="0" y="0" class="bt4 bt5">Facebook</tspan><tspan x="0.6" y="9.6" class="bt4 bt5">Targeting</tspan></text>
<text transform="matrix(1 0 0 1 326.2338 92.2739)" class="bt4 bt5">Facebook API</text>
<g>
	<g>
		<line class="bt0" x1="211.8" y1="184.5" x2="274.2" y2="184.5"/>
		<g>
			<rect x="211.5" y="182.9" class="bt6" width="0.5" height="3.2"/>
		</g>
		<g>
			<rect x="274" y="182.9" class="bt6" width="0.5" height="3.2"/>
		</g>
	</g>
</g>
<line class="bt0" x1="243" y1="72" x2="469.9" y2="72"/>
<line class="bt0" x1="85.5" y1="31.5" x2="85.5" y2="184.5"/>
<rect x="36" y="81" class="bt3" width="99" height="18"/>
<rect x="36" y="103.5" class="bt3" width="99" height="31.5"/>
<rect x="36" y="139.5" class="bt3" width="99" height="31.5"/>
<circle class="bt2" cx="28.7" cy="223.7" r="2.2"/>
<circle class="bt2" cx="27.2" cy="197.8" r="2.2"/>
<circle class="bt2" cx="25" cy="212.4" r="2.2"/>
<circle class="bt2" cx="43.4" cy="219.9" r="2.2"/>
<circle class="bt2" cx="52.6" cy="210.2" r="2.2"/>
<circle class="bt2" cx="58.3" cy="199.7" r="2.2"/>
<circle class="bt2" cx="65.1" cy="204.9" r="2.2"/>
<circle class="bt2" cx="91.1" cy="196.2" r="2.2"/>
<circle class="bt2" cx="73.5" cy="199.1" r="2.2"/>
<circle class="bt2" cx="98" cy="205.7" r="2.2"/>
<circle class="bt2" cx="88.8" cy="222.8" r="2.2"/>
<circle class="bt2" cx="82.5" cy="229" r="2.2"/>
<circle class="bt2" cx="87.8" cy="210.9" r="2.2"/>
<circle class="bt2" cx="115.7" cy="236.2" r="2.2"/>
<circle class="bt2" cx="129" cy="236.2" r="2.2"/>
<circle class="bt2" cx="125.3" cy="228.2" r="2.2"/>
<circle class="bt2" cx="135" cy="228.2" r="2.2"/>
<circle class="bt2" cx="135" cy="219.9" r="2.2"/>
<circle class="bt2" cx="139.8" cy="210.9" r="2.2"/>
<circle class="bt2" cx="141.8" cy="201.9" r="2.2"/>
<circle class="bt2" cx="144" cy="226.7" r="4.5"/>
<circle class="bt2" cx="99" cy="226.7" r="4.5"/>
<circle class="bt2" cx="72" cy="213.2" r="4.5"/>
<circle class="bt2" cx="40.5" cy="231.2" r="4.5"/>
<circle class="bt2" cx="40.5" cy="204.2" r="4.5"/>
<circle class="bt2" cx="63" cy="226.7" r="9"/>
<circle class="bt2" cx="119.2" cy="210.9" r="11.2"/>
<text transform="matrix(1 0 0 1 79.3962 152.7241)"><tspan x="0" y="0" class="bt4 bt5">IAB</tspan><tspan x="-8.8" y="9.6" class="bt4 bt5">Ad Units</tspan></text>
<text transform="matrix(1 0 0 1 73.0125 116.7241)"><tspan x="0" y="0" class="bt4 bt5">Cookie</tspan><tspan x="-4.3" y="9.6" class="bt4 bt5">Targeting</tspan></text>
<text transform="matrix(1 0 0 1 67.4363 92.2739)" class="bt4 bt5">Open RTB</text>
<text transform="matrix(1 0 0 1 176.24 102.5001)" class="bt7 bt5">vs</text>
<rect x="67.5" y="41.5" class="bt2" width="36" height="18"/>
<text transform="matrix(1 0 0 1 78.0074 52.7739)" class="bt4 bt5">DSP</text>
<text transform="matrix(1 0 0 1 29.4557 22.5)" class="bt4 bt8">Pre-2015 RTB + IAB world</text>
<line class="bt0" x1="330" y1="31.5" x2="330" y2="72"/>
<rect x="301.5" y="41.5" class="bt2" width="57" height="18"/>
<text transform="matrix(1 0 0 1 312.7206 52.2056)" class="bt4 bt5">Meta DSP</text>
<text transform="matrix(1 0 0 1 219.3734 22.5)" class="bt4 bt8">Post-2015 massively multichannel API-based world</text>
<path class="bt9" d="M122.2,212.8c0,0.6-0.5,1.1-1.1,1.1h-3.7c-0.6,0-1.1-0.5-1.1-1.1V209c0-0.6,0.5-1.1,1.1-1.1h3.7
	c0.6,0,1.1,0.5,1.1,1.1V212.8z M121.4,210.1h-0.8v-0.4c0-0.2,0-0.3,0.3-0.3h0.4v-0.9h-0.7c-0.8,0-1.1,0.4-1.1,1.1v0.5h-0.5v0.9h0.5
	v2.5h1V211h0.7L121.4,210.1z"/>
<circle class="bt2" cx="350.7" cy="218.7" r="24.3"/>
<path class="bt9" d="M353.6,220.5c0,0.6-0.5,1.1-1.1,1.1h-3.7c-0.6,0-1.1-0.5-1.1-1.1v-3.7c0-0.6,0.5-1.1,1.1-1.1h3.7
	c0.6,0,1.1,0.5,1.1,1.1V220.5z M352.8,217.9h-0.8v-0.4c0-0.2,0-0.3,0.3-0.3h0.4v-0.9h-0.7c-0.8,0-1.1,0.4-1.1,1.1v0.5h-0.5v0.9h0.5
	v2.5h1v-2.5h0.7L352.8,217.9z"/>
<g>
	<g>
		<line class="bt0" x1="18.2" y1="184.5" x2="152.8" y2="184.5"/>
		<g>
			<rect x="18" y="182.9" class="bt6" width="0.5" height="3.2"/>
		</g>
		<g>
			<rect x="152.5" y="182.9" class="bt6" width="0.5" height="3.2"/>
		</g>
	</g>
</g>
<path class="bt10" d="M65.4,229.1c-0.1,0.3-0.3,0.5-0.5,0.5c-0.6,0.1-1.2,0.1-1.9,0.1s-1.2,0-1.9-0.1c-0.3,0-0.5-0.2-0.5-0.5
	c-0.1-0.4-0.1-0.8-0.1-1.2c0-0.4,0-0.8,0.1-1.2c0.1-0.3,0.3-0.5,0.5-0.5c0.6-0.1,1.2-0.1,1.9-0.1s1.2,0,1.9,0.1
	c0.3,0,0.5,0.2,0.5,0.5c0.1,0.4,0.1,0.8,0.1,1.2C65.5,228.3,65.5,228.7,65.4,229.1z M61.9,227.1v-0.3h-1v0.3h0.4v1.9h0.3v-1.9H61.9z
	 M62.5,223.7l-0.4,1.3v0.9h-0.3V225c0-0.2-0.1-0.4-0.2-0.7c-0.1-0.2-0.1-0.4-0.2-0.6h0.4l0.2,0.9l0.2-0.9H62.5z M62.8,229v-1.7h-0.3
	v1.3c-0.1,0.1-0.1,0.1-0.2,0.1c0,0-0.1,0-0.1-0.1c0,0,0,0,0-0.1v-1.2H62v1.3c0,0.1,0,0.2,0,0.2c0,0.1,0.1,0.1,0.2,0.1
	c0.1,0,0.2-0.1,0.3-0.2v0.2H62.8z M63.4,225.4c0,0.2,0,0.3-0.1,0.4c-0.1,0.1-0.2,0.2-0.4,0.2c-0.2,0-0.3-0.1-0.4-0.2
	c-0.1-0.1-0.1-0.2-0.1-0.4v-0.6c0-0.2,0-0.3,0.1-0.4c0.1-0.1,0.2-0.2,0.4-0.2c0.2,0,0.3,0.1,0.4,0.2c0.1,0.1,0.1,0.2,0.1,0.4V225.4z
	 M63.1,224.7c0-0.2,0-0.2-0.1-0.2c-0.1,0-0.1,0.1-0.1,0.2v0.7c0,0.2,0,0.2,0.1,0.2c0.1,0,0.1-0.1,0.1-0.2V224.7z M64,227.9
	c0-0.2,0-0.3,0-0.3c0-0.1-0.1-0.2-0.2-0.2c-0.1,0-0.2,0.1-0.3,0.2v-0.7h-0.3v2.2h0.3v-0.2c0.1,0.1,0.2,0.2,0.3,0.2
	c0.1,0,0.2-0.1,0.2-0.2c0-0.1,0-0.2,0-0.3V227.9z M63.7,228.5c0,0.2,0,0.2-0.1,0.2c-0.1,0-0.1,0-0.2-0.1v-1c0.1-0.1,0.1-0.1,0.2-0.1
	c0.1,0,0.1,0.1,0.1,0.2V228.5z M64.5,225.9h-0.3v-0.2c-0.1,0.1-0.2,0.2-0.3,0.2c-0.1,0-0.2,0-0.2-0.1c0-0.1,0-0.1,0-0.3v-1.3h0.3
	v1.2c0,0.1,0,0.1,0,0.1c0,0,0,0.1,0.1,0.1c0.1,0,0.1,0,0.2-0.1v-1.3h0.3V225.9z M65.1,228.4h-0.3c0,0.1,0,0.2,0,0.2
	c0,0.1-0.1,0.1-0.1,0.1c-0.1,0-0.2-0.1-0.2-0.2v-0.3h0.6v-0.3c0-0.2,0-0.3-0.1-0.4c-0.1-0.1-0.2-0.2-0.4-0.2c-0.2,0-0.3,0.1-0.4,0.2
	c-0.1,0.1-0.1,0.2-0.1,0.4v0.6c0,0.2,0,0.3,0.1,0.4c0.1,0.1,0.2,0.2,0.4,0.2c0.2,0,0.3-0.1,0.4-0.2c0-0.1,0.1-0.1,0.1-0.2
	C65.1,228.6,65.1,228.6,65.1,228.4L65.1,228.4z M64.8,228h-0.3v-0.2c0-0.2,0-0.2,0.2-0.2c0.1,0,0.2,0.1,0.2,0.2V228z"/>
<circle class="bt2" cx="302.5" cy="201.5" r="14.5"/>
<circle class="bt2" cx="397.9" cy="192" r="10"/>
<path class="bt10" d="M304.9,203.9c-0.1,0.3-0.3,0.5-0.5,0.5c-0.6,0.1-1.2,0.1-1.9,0.1s-1.2,0-1.9-0.1c-0.3,0-0.5-0.2-0.5-0.5
	c-0.1-0.4-0.1-0.8-0.1-1.2c0-0.4,0-0.8,0.1-1.2c0.1-0.3,0.3-0.5,0.5-0.5c0.6-0.1,1.2-0.1,1.9-0.1s1.2,0,1.9,0.1
	c0.3,0,0.5,0.2,0.5,0.5c0.1,0.4,0.1,0.8,0.1,1.2C305,203.1,305,203.5,304.9,203.9z M301.5,201.9v-0.3h-1v0.3h0.4v1.9h0.3v-1.9H301.5
	z M302,198.5l-0.4,1.3v0.9h-0.3v-0.9c0-0.2-0.1-0.4-0.2-0.7c-0.1-0.2-0.1-0.4-0.2-0.6h0.4l0.2,0.9l0.2-0.9H302z M302.4,203.8v-1.7
	h-0.3v1.3c-0.1,0.1-0.1,0.1-0.2,0.1c0,0-0.1,0-0.1-0.1c0,0,0,0,0-0.1v-1.2h-0.3v1.3c0,0.1,0,0.2,0,0.2c0,0.1,0.1,0.1,0.2,0.1
	c0.1,0,0.2-0.1,0.3-0.2v0.2H302.4z M302.9,200.2c0,0.2,0,0.3-0.1,0.4c-0.1,0.1-0.2,0.2-0.4,0.2c-0.2,0-0.3-0.1-0.4-0.2
	c-0.1-0.1-0.1-0.2-0.1-0.4v-0.6c0-0.2,0-0.3,0.1-0.4c0.1-0.1,0.2-0.2,0.4-0.2c0.2,0,0.3,0.1,0.4,0.2c0.1,0.1,0.1,0.2,0.1,0.4V200.2z
	 M302.6,199.5c0-0.2,0-0.2-0.1-0.2c-0.1,0-0.1,0.1-0.1,0.2v0.7c0,0.2,0,0.2,0.1,0.2c0.1,0,0.1-0.1,0.1-0.2V199.5z M303.5,202.6
	c0-0.2,0-0.3,0-0.3c0-0.1-0.1-0.2-0.2-0.2c-0.1,0-0.2,0.1-0.3,0.2v-0.7h-0.3v2.2h0.3v-0.2c0.1,0.1,0.2,0.2,0.3,0.2
	c0.1,0,0.2-0.1,0.2-0.2c0-0.1,0-0.2,0-0.3V202.6z M303.2,203.3c0,0.2,0,0.2-0.1,0.2c-0.1,0-0.1,0-0.2-0.1v-1
	c0.1-0.1,0.1-0.1,0.2-0.1c0.1,0,0.1,0.1,0.1,0.2V203.3z M304,200.7h-0.3v-0.2c-0.1,0.1-0.2,0.2-0.3,0.2c-0.1,0-0.2,0-0.2-0.1
	c0-0.1,0-0.1,0-0.3V199h0.3v1.2c0,0.1,0,0.1,0,0.1c0,0,0,0.1,0.1,0.1c0.1,0,0.1,0,0.2-0.1V199h0.3V200.7z M304.6,203.2h-0.3
	c0,0.1,0,0.2,0,0.2c0,0.1-0.1,0.1-0.1,0.1c-0.1,0-0.2-0.1-0.2-0.2V203h0.6v-0.3c0-0.2,0-0.3-0.1-0.4c-0.1-0.1-0.2-0.2-0.4-0.2
	c-0.2,0-0.3,0.1-0.4,0.2c-0.1,0.1-0.1,0.2-0.1,0.4v0.6c0,0.2,0,0.3,0.1,0.4c0.1,0.1,0.2,0.2,0.4,0.2c0.2,0,0.3-0.1,0.4-0.2
	c0-0.1,0.1-0.1,0.1-0.2C304.6,203.4,304.6,203.4,304.6,203.2L304.6,203.2z M304.3,202.8H304v-0.2c0-0.2,0-0.2,0.2-0.2
	c0.1,0,0.2,0.1,0.2,0.2V202.8z"/>
<circle class="bt2" cx="415.9" cy="225.7" r="13.5"/>
<circle class="bt2" cx="433.9" cy="199.1" r="10"/>
<circle class="bt2" cx="451.9" cy="221.2" r="6.2"/>
<circle class="bt2" cx="469.4" cy="207" r="7.6"/>
<path class="bt11" d="M400.9,193.9c0,0.6-0.5,1.1-1.1,1.1H396c-0.6,0-1.1-0.5-1.1-1.1v-3.7c0-0.6,0.5-1.1,1.1-1.1h3.8
	c0.6,0,1.1,0.5,1.1,1.1V193.9z M399.4,191.1c0.2-0.1,0.3-0.3,0.4-0.5c-0.2,0.1-0.3,0.2-0.5,0.2c-0.1-0.2-0.4-0.3-0.6-0.3
	c-0.5,0-0.8,0.4-0.8,0.8c0,0.1,0,0.1,0,0.2c-0.7,0-1.3-0.4-1.7-0.9c-0.1,0.1-0.1,0.3-0.1,0.4c0,0.3,0.1,0.5,0.4,0.7
	c-0.1,0-0.3,0-0.4-0.1c0,0,0,0,0,0c0,0.4,0.3,0.7,0.7,0.8c-0.1,0-0.1,0-0.2,0c-0.1,0-0.1,0-0.2,0c0.1,0.3,0.4,0.6,0.8,0.6
	c-0.3,0.2-0.6,0.4-1,0.4c-0.1,0-0.1,0-0.2,0c0.4,0.2,0.8,0.4,1.3,0.4c1.5,0,2.3-1.2,2.3-2.3c0,0,0-0.1,0-0.1
	c0.2-0.1,0.3-0.3,0.4-0.4C399.7,191,399.6,191,399.4,191.1z"/>
<path class="bt12" d="M436.9,201.3c0,0.4-0.3,0.8-0.8,0.8h-4.5c-0.4,0-0.8-0.3-0.8-0.8v-4.5c0-0.4,0.3-0.8,0.8-0.8h4.5
	c0.4,0,0.8,0.3,0.8,0.8V201.3z M436.2,198.6h-0.5c0.1,0.2,0.1,0.3,0.1,0.5c0,1-0.8,1.8-1.9,1.8c-1,0-1.9-0.8-1.9-1.8
	c0-0.2,0-0.4,0.1-0.5h-0.6v2.5c0,0.1,0.1,0.2,0.2,0.2h4.2c0.1,0,0.2-0.1,0.2-0.2V198.6z M433.9,197.9c-0.7,0-1.2,0.5-1.2,1.2
	c0,0.6,0.5,1.2,1.2,1.2c0.7,0,1.2-0.5,1.2-1.2C435.1,198.4,434.6,197.9,433.9,197.9z M436.2,197c0-0.1-0.1-0.3-0.3-0.3h-0.7
	c-0.1,0-0.3,0.1-0.3,0.3v0.6c0,0.1,0.1,0.3,0.3,0.3h0.7c0.1,0,0.3-0.1,0.3-0.3V197z"/>
<path class="bt13" d="M415.9,228.7c-0.3,0-0.6,0-0.9-0.1c0.1-0.2,0.2-0.4,0.3-0.6c0,0,0-0.1,0.2-0.8c0.1,0.2,0.4,0.4,0.7,0.4
	c1,0,1.6-0.9,1.6-2.1c0-0.9-0.8-1.7-1.9-1.7c-1.4,0-2.1,1-2.1,1.9c0,0.5,0.2,1,0.6,1.1c0.1,0,0.1,0,0.1-0.1c0-0.1,0-0.2,0.1-0.2
	c0-0.1,0-0.1,0-0.2c-0.1-0.1-0.2-0.3-0.2-0.6c0-0.8,0.6-1.4,1.5-1.4c0.8,0,1.2,0.5,1.2,1.2c0,0.9-0.4,1.6-1,1.6
	c-0.3,0-0.5-0.3-0.5-0.6c0.1-0.4,0.3-0.8,0.3-1.1c0-0.2-0.1-0.5-0.4-0.5c-0.3,0-0.6,0.3-0.6,0.8c0,0,0,0.3,0.1,0.5
	c-0.3,1.4-0.4,1.6-0.4,1.6c-0.1,0.2-0.1,0.5-0.1,0.7c-1.1-0.5-1.8-1.5-1.8-2.8c0-1.7,1.3-3,3-3s3,1.3,3,3S417.5,228.7,415.9,228.7z"
	/>
</svg>
