<?xml version="1.0" encoding="utf-8"?>
<!-- Generator: Adobe Illustrator 19.1.0, SVG Export Plug-In . SVG Version: 6.00 Build 0)  -->
<svg version="1.1" id="Layer_1" xmlns="http://www.w3.org/2000/svg" xmlns:xlink="http://www.w3.org/1999/xlink" x="0px" y="0px"
	 viewBox="0 0 504 256.5" style="enable-background:new 0 0 504 256.5;" xml:space="preserve">
<style type="text/css">
	.at0{fill:#E6E6E6;stroke:#B3B3B3;stroke-width:0.5;stroke-miterlimit:10;}
	.at1{font-weight:200;}
	.at2{font-size:6px;}
	.at3{fill:#E6E6E6;stroke:#CCCCCC;stroke-width:0.5;stroke-miterlimit:10;}
	.at4{fill:#5572B6;}
	.at5{fill:#F2F2F2;stroke:#B3B3B3;stroke-width:0.5;stroke-miterlimit:10;}
	.at6{fill:none;stroke:#B3B3B3;stroke-width:0.5;stroke-miterlimit:10;}
	.at7{font-weight:normal;}
	.at8{font-size:8px;}
	.at9{fill:none;stroke:#B3B3B3;stroke-width:0.5;stroke-miterlimit:10;stroke-dasharray:1,2;}
	.at10{fill:#B3B3B3;}
	.at11{fill:#38B9F7;}
	.at12{fill:#DA1F01;}
	.at13{fill:#99725D;}
	.at14{fill:#0089C7;}
	.at15{fill:#F54028;}
</style>
<rect x="22.5" y="171" class="at0" width="22.5" height="58.5"/>
<text transform="matrix(1 0 0 1 24.3062 238.4999)" class="at1 at2">Display</text>
<rect x="49.5" y="216" class="at3" width="22.5" height="13.5"/>
<text transform="matrix(1 0 0 1 51.9692 238.4999)" class="at1 at2">Mobile</text>
<rect x="76.5" y="211.5" class="at0" width="22.5" height="18"/>
<text transform="matrix(1 0 0 1 80.04 238.4999)" class="at1 at2">Video</text>
<rect x="103.4" y="148.5" class="at0" width="22.5" height="81"/>
<path class="at4" d="M117.6,238.4c0,0.6-0.5,1.1-1.1,1.1h-3.7c-0.6,0-1.1-0.5-1.1-1.1v-3.7c0-0.6,0.5-1.1,1.1-1.1h3.7
	c0.6,0,1.1,0.5,1.1,1.1V238.4z M116.9,235.8h-0.8v-0.4c0-0.2,0-0.3,0.3-0.3h0.4v-0.9h-0.7c-0.8,0-1.1,0.4-1.1,1.1v0.5h-0.5v0.9h0.5
	v2.5h1v-2.5h0.7L116.9,235.8z"/>
<rect x="216" y="189" class="at5" width="22.5" height="40.5"/>
<text transform="matrix(1 0 0 1 217.8062 238.4999)" class="at1 at2">Display</text>
<rect x="458.9" y="189" class="at0" width="22.5" height="40.5"/>
<text transform="matrix(1 0 0 1 464.2081 238.4999)" class="at1 at2">etc...</text>
<rect x="243" y="202.5" class="at5" width="22.5" height="27"/>
<text transform="matrix(1 0 0 1 245.4692 238.4999)" class="at1 at2">Mobile</text>
<rect x="270" y="157.5" class="at5" width="22.5" height="72"/>
<text transform="matrix(1 0 0 1 273.54 238.4999)" class="at1 at2">Video</text>
<rect x="296.9" y="130.5" class="at5" width="22.5" height="99"/>
<path class="at4" d="M311.1,238.4c0,0.6-0.5,1.1-1.1,1.1h-3.7c-0.6,0-1.1-0.5-1.1-1.1v-3.7c0-0.6,0.5-1.1,1.1-1.1h3.7
	c0.6,0,1.1,0.5,1.1,1.1V238.4z M310.4,235.8h-0.8v-0.4c0-0.2,0-0.3,0.3-0.3h0.4v-0.9h-0.7c-0.8,0-1.1,0.4-1.1,1.1v0.5h-0.5v0.9h0.5
	v2.5h1v-2.5h0.7L310.4,235.8z"/>
<rect x="323.9" y="193.5" class="at0" width="22.5" height="36"/>
<rect x="350.9" y="180" class="at0" width="22.5" height="49.5"/>
<rect x="377.9" y="216" class="at3" width="22.5" height="13.5"/>
<rect x="404.9" y="144" class="at0" width="22.5" height="85.5"/>
<rect x="431.9" y="153" class="at0" width="22.5" height="76.5"/>
<line class="at6" x1="9" y1="229.5" x2="495" y2="229.5"/>
<text transform="matrix(1 0 0 1 13.5 54)"><tspan x="0" y="0" class="at7 at8">In 2015...</tspan><tspan x="0" y="9.6" class="at7 at8">RTB + cookies + IAB units almost everywhere</tspan><tspan x="0" y="19.2" class="at7 at8">New channels support both RTB and API</tspan><tspan x="0" y="28.8" class="at7 at8">Facebook and YouTube already at significant scale</tspan></text>
<text transform="matrix(1 0 0 1 247.5 18)"><tspan x="0" y="0" class="at7 at8">In 2020...</tspan><tspan x="0" y="9.6" class="at7 at8">Massively multichannel environment</tspan><tspan x="0" y="19.2" class="at7 at8">100% “lowercase-p” programmatic</tspan><tspan x="0" y="28.8" class="at7 at8">RTB + cookies + IAB units only a small % of inventory</tspan><tspan x="0" y="38.4" class="at7 at8">API-based buying is dominant</tspan><tspan x="0" y="48" class="at7 at8">The “best” inventory is behind APIs</tspan></text>
<g>
	<g>
		<line class="at9" x1="22.8" y1="121.5" x2="125.8" y2="121.5"/>
		<g>
			<rect x="22.5" y="119.9" class="at10" width="0.5" height="3.2"/>
		</g>
		<g>
			<rect x="125.5" y="119.9" class="at10" width="0.5" height="3.2"/>
		</g>
	</g>
</g>
<line class="at9" x1="90" y1="90" x2="90" y2="121.5"/>
<g>
	<g>
		<line class="at9" x1="216.2" y1="112.5" x2="481.2" y2="112.5"/>
		<g>
			<rect x="216" y="110.9" class="at10" width="0.5" height="3.2"/>
		</g>
		<g>
			<rect x="481" y="110.9" class="at10" width="0.5" height="3.2"/>
		</g>
	</g>
</g>
<line class="at9" x1="301.5" y1="76.5" x2="301.5" y2="112.5"/>
<path class="at11" d="M338.2,238.5c0,0.6-0.5,1.1-1.1,1.1h-3.8c-0.6,0-1.1-0.5-1.1-1.1v-3.7c0-0.6,0.5-1.1,1.1-1.1h3.8
	c0.6,0,1.1,0.5,1.1,1.1V238.5z M336.7,235.7c0.2-0.1,0.3-0.3,0.4-0.5c-0.2,0.1-0.3,0.2-0.5,0.2c-0.1-0.2-0.4-0.3-0.6-0.3
	c-0.5,0-0.8,0.4-0.8,0.8c0,0.1,0,0.1,0,0.2c-0.7,0-1.3-0.4-1.7-0.9c-0.1,0.1-0.1,0.3-0.1,0.4c0,0.3,0.1,0.5,0.4,0.7
	c-0.1,0-0.3,0-0.4-0.1c0,0,0,0,0,0c0,0.4,0.3,0.7,0.7,0.8c-0.1,0-0.1,0-0.2,0c-0.1,0-0.1,0-0.2,0c0.1,0.3,0.4,0.6,0.8,0.6
	c-0.3,0.2-0.6,0.4-1,0.4c-0.1,0-0.1,0-0.2,0c0.4,0.2,0.8,0.4,1.3,0.4c1.5,0,2.3-1.2,2.3-2.3c0,0,0-0.1,0-0.1
	c0.2-0.1,0.3-0.3,0.4-0.4C337,235.6,336.9,235.6,336.7,235.7z"/>
<path class="at12" d="M416.2,239.8c-0.3,0-0.6,0-0.9-0.1c0.1-0.2,0.2-0.4,0.3-0.6c0,0,0-0.1,0.2-0.8c0.1,0.2,0.4,0.4,0.7,0.4
	c1,0,1.6-0.9,1.6-2.1c0-0.9-0.8-1.7-1.9-1.7c-1.4,0-2.1,1-2.1,1.9c0,0.5,0.2,1,0.6,1.1c0.1,0,0.1,0,0.1-0.1c0-0.1,0-0.2,0.1-0.2
	c0-0.1,0-0.1,0-0.2c-0.1-0.1-0.2-0.3-0.2-0.6c0-0.8,0.6-1.4,1.5-1.4c0.8,0,1.2,0.5,1.2,1.2c0,0.9-0.4,1.6-1,1.6
	c-0.3,0-0.5-0.3-0.5-0.6c0.1-0.4,0.3-0.8,0.3-1.1c0-0.2-0.1-0.5-0.4-0.5c-0.3,0-0.6,0.3-0.6,0.8c0,0,0,0.3,0.1,0.5
	c-0.3,1.4-0.4,1.6-0.4,1.6c-0.1,0.2-0.1,0.5-0.1,0.7c-1.1-0.5-1.8-1.5-1.8-2.8c0-1.7,1.3-3,3-3s3,1.3,3,3S417.8,239.8,416.2,239.8z"
	/>
<path class="at13" d="M365.2,239c0,0.4-0.3,0.8-0.8,0.8H360c-0.4,0-0.8-0.3-0.8-0.8v-4.5c0-0.4,0.3-0.8,0.8-0.8h4.5
	c0.4,0,0.8,0.3,0.8,0.8V239z M364.5,236.3H364c0.1,0.2,0.1,0.3,0.1,0.5c0,1-0.8,1.8-1.9,1.8c-1,0-1.9-0.8-1.9-1.8
	c0-0.2,0-0.4,0.1-0.5h-0.6v2.5c0,0.1,0.1,0.2,0.2,0.2h4.2c0.1,0,0.2-0.1,0.2-0.2V236.3z M362.2,235.6c-0.7,0-1.2,0.5-1.2,1.2
	c0,0.6,0.5,1.2,1.2,1.2c0.7,0,1.2-0.5,1.2-1.2C363.4,236.1,362.9,235.6,362.2,235.6z M364.5,234.7c0-0.1-0.1-0.3-0.3-0.3h-0.7
	c-0.1,0-0.3,0.1-0.3,0.3v0.6c0,0.1,0.1,0.3,0.3,0.3h0.7c0.1,0,0.3-0.1,0.3-0.3V234.7z"/>
<path class="at14" d="M392.2,238.6c0,0.6-0.5,1.1-1.1,1.1h-3.8c-0.6,0-1.1-0.5-1.1-1.1v-3.8c0-0.6,0.5-1.1,1.1-1.1h3.8
	c0.6,0,1.1,0.5,1.1,1.1V238.6z M387.6,234.8c-0.3,0-0.5,0.2-0.5,0.5c0,0.3,0.2,0.5,0.5,0.5h0c0.3,0,0.5-0.2,0.5-0.5
	C388.1,235,387.9,234.8,387.6,234.8z M388,238.8v-2.7h-0.9v2.7H388z M391.3,238.8v-1.6c0-0.8-0.4-1.2-1-1.2c-0.5,0-0.7,0.3-0.8,0.5
	h0v-0.4h-0.9c0,0,0,0.3,0,2.7h0.9v-1.5c0-0.1,0-0.2,0-0.2c0.1-0.2,0.2-0.3,0.5-0.3c0.3,0,0.5,0.2,0.5,0.6v1.4H391.3z"/>
<path class="at15" d="M445.6,239.2c-0.1,0.3-0.3,0.5-0.5,0.5c-0.6,0.1-1.2,0.1-1.9,0.1s-1.2,0-1.9-0.1c-0.3,0-0.5-0.2-0.5-0.5
	c-0.1-0.4-0.1-0.8-0.1-1.2c0-0.4,0-0.8,0.1-1.2c0.1-0.3,0.3-0.5,0.5-0.5c0.6-0.1,1.2-0.1,1.9-0.1s1.2,0,1.9,0.1
	c0.3,0,0.5,0.2,0.5,0.5c0.1,0.4,0.1,0.8,0.1,1.2C445.7,238.4,445.7,238.8,445.6,239.2z M442.1,237.2v-0.3h-1v0.3h0.4v1.9h0.3v-1.9
	H442.1z M442.7,233.8l-0.4,1.3v0.9h-0.3v-0.9c0-0.2-0.1-0.4-0.2-0.7c-0.1-0.2-0.1-0.4-0.2-0.6h0.4l0.2,0.9l0.2-0.9H442.7z
	 M443,239.1v-1.7h-0.3v1.3c-0.1,0.1-0.1,0.1-0.2,0.1c0,0-0.1,0-0.1-0.1c0,0,0,0,0-0.1v-1.2h-0.3v1.3c0,0.1,0,0.2,0,0.2
	c0,0.1,0.1,0.1,0.2,0.1c0.1,0,0.2-0.1,0.3-0.2v0.2H443z M443.6,235.5c0,0.2,0,0.3-0.1,0.4c-0.1,0.1-0.2,0.2-0.4,0.2
	c-0.2,0-0.3-0.1-0.4-0.2c-0.1-0.1-0.1-0.2-0.1-0.4v-0.6c0-0.2,0-0.3,0.1-0.4c0.1-0.1,0.2-0.2,0.4-0.2c0.2,0,0.3,0.1,0.4,0.2
	c0.1,0.1,0.1,0.2,0.1,0.4V235.5z M443.3,234.8c0-0.2,0-0.2-0.1-0.2c-0.1,0-0.1,0.1-0.1,0.2v0.7c0,0.2,0,0.2,0.1,0.2
	c0.1,0,0.1-0.1,0.1-0.2V234.8z M444.2,238c0-0.2,0-0.3,0-0.3c0-0.1-0.1-0.2-0.2-0.2c-0.1,0-0.2,0.1-0.3,0.2v-0.7h-0.3v2.2h0.3v-0.2
	c0.1,0.1,0.2,0.2,0.3,0.2c0.1,0,0.2-0.1,0.2-0.2c0-0.1,0-0.2,0-0.3V238z M443.9,238.6c0,0.2,0,0.2-0.1,0.2c-0.1,0-0.1,0-0.2-0.1v-1
	c0.1-0.1,0.1-0.1,0.2-0.1c0.1,0,0.1,0.1,0.1,0.2V238.6z M444.7,236h-0.3v-0.2c-0.1,0.1-0.2,0.2-0.3,0.2c-0.1,0-0.2,0-0.2-0.1
	c0-0.1,0-0.1,0-0.3v-1.3h0.3v1.2c0,0.1,0,0.1,0,0.1c0,0,0,0.1,0.1,0.1c0.1,0,0.1,0,0.2-0.1v-1.3h0.3V236z M445.3,238.5H445
	c0,0.1,0,0.2,0,0.2c0,0.1-0.1,0.1-0.1,0.1c-0.1,0-0.2-0.1-0.2-0.2v-0.3h0.6V238c0-0.2,0-0.3-0.1-0.4c-0.1-0.1-0.2-0.2-0.4-0.2
	c-0.2,0-0.3,0.1-0.4,0.2c-0.1,0.1-0.1,0.2-0.1,0.4v0.6c0,0.2,0,0.3,0.1,0.4c0.1,0.1,0.2,0.2,0.4,0.2c0.2,0,0.3-0.1,0.4-0.2
	c0-0.1,0.1-0.1,0.1-0.2C445.3,238.7,445.3,238.7,445.3,238.5L445.3,238.5z M445,238.1h-0.3v-0.2c0-0.2,0-0.2,0.2-0.2
	c0.1,0,0.2,0.1,0.2,0.2V238.1z"/>
</svg>
